# https://github.com/mikedh/trimesh
v -0.03080000 -0.00480000 0.01640000
v -0.00300000 -0.00480000 0.02880000
v -0.03080000 -0.00480000 0.02880000
v -0.00300000 -0.00480000 0.01640000
v -0.00000000 -0.00480000 0.01300000
v -0.03580000 -0.00480000 0.01300000
v -0.03580000 -0.00480000 0.01640000
v -0.00000000 -0.00480000 0.01640000
v -0.00000000 -0.00480000 0.02880000
v -0.00000000 -0.00480000 0.03750000
v -0.03580000 -0.00480000 0.03750000
v -0.03580000 -0.00480000 0.02880000
v -0.02788360 0.01295110 0.03990000
v -0.02784630 -0.00295511 0.03990000
v -0.02701870 0.01300000 0.03990000
v -0.02870150 -0.00281697 0.03990000
v -0.02873810 0.01280890 0.03990000
v -0.02953660 -0.00258719 0.03990000
v -0.02957220 0.01257520 0.03990000
v -0.03034210 -0.00226845 0.03990000
v -0.03037610 0.01225270 0.03990000
v -0.03110840 -0.00186450 0.03990000
v -0.03114050 0.01184520 0.03990000
v -0.03182650 -0.00138007 0.03990000
v -0.03185630 0.01135740 0.03990000
v -0.03248800 -0.00082084 0.03990000
v -0.03251520 0.01079510 0.03990000
v -0.03308510 -0.00019336 0.03990000
v -0.03310940 0.01016480 0.03990000
v -0.03361100 0.00049500 0.03990000
v -0.03363200 0.00947397 0.03990000
v -0.03405930 0.00123619 0.03990000
v -0.03407690 0.00873070 0.03990000
v -0.03442490 0.00202149 0.03990000
v -0.03443870 0.00794369 0.03990000
v -0.03470340 0.00284172 0.03990000
v -0.03471340 0.00712216 0.03990000
v -0.03489160 0.00368726 0.03990000
v -0.03489760 0.00627576 0.03990000
v -0.03498720 0.00454818 0.03990000
v -0.02698130 -0.00299998 0.03990000
v -0.02615370 0.01295510 0.03990000
v -0.02611640 -0.00295106 0.03990000
v -0.02529850 0.01281700 0.03990000
v -0.02526190 -0.00280891 0.03990000
v -0.02446340 0.01258720 0.03990000
v -0.02442780 -0.00257522 0.03990000
v -0.02365790 0.01226850 0.03990000
v -0.02362390 -0.00225271 0.03990000
v -0.02289160 0.01186450 0.03990000
v -0.02285950 -0.00184518 0.03990000
v -0.02217350 0.01138010 0.03990000
v -0.02214370 -0.00135739 0.03990000
v -0.02151200 0.01082080 0.03990000
v -0.02148480 -0.00079506 0.03990000
v -0.02091490 0.01019340 0.03990000
v -0.02089060 -0.00016479 0.03990000
v -0.02038900 0.00950499 0.03990000
v -0.02036800 0.00052603 0.03990000
v -0.01994070 0.00876381 0.03990000
v -0.01992310 0.00126930 0.03990000
v -0.01957510 0.00797851 0.03990000
v -0.01956130 0.00205631 0.03990000
v -0.01929660 0.00715828 0.03990000
v -0.01928660 0.00287784 0.03990000
v -0.01910840 0.00631274 0.03990000
v -0.01910240 0.00372424 0.03990000
v -0.01901280 0.00545182 0.03990000
v -0.02574510 -0.00290096 0.03750000
v -0.02660670 -0.00299032 0.03750000
v -0.02489820 -0.00271896 0.03750000
v -0.02407590 -0.00244646 0.03750000
v -0.02328800 -0.00208666 0.03750000
v -0.02254350 -0.00164378 0.03750000
v -0.02185130 -0.00112300 0.03750000
v -0.02121950 -0.00053044 0.03750000
v -0.02065540 0.00012696 0.03750000
v -0.02016580 0.00084149 0.03750000
v -0.01975620 0.00160478 0.03750000
v -0.01943160 0.00240788 0.03750000
v -0.01919570 0.00324136 0.03750000
v -0.01905130 0.00409547 0.03750000
v -0.01901070 0.00458560 0.03990000
v -0.01900010 0.00496017 0.03750000
v -0.01904270 0.00582535 0.03750000
v -0.01917860 0.00668085 0.03750000
v -0.01940620 0.00751664 0.03750000
v -0.01972280 0.00832293 0.03750000
v -0.02012470 0.00909026 0.03750000
v -0.02060720 0.00980963 0.03750000
v -0.02116470 0.01047260 0.03750000
v -0.02179060 0.01107140 0.03750000
v -0.02247760 0.01159910 0.03750000
v -0.02321760 0.01204940 0.03750000
v -0.02400190 0.01241700 0.03750000
v -0.02482140 0.01269770 0.03750000
v -0.02566650 0.01288810 0.03750000
v -0.02652710 0.01298600 0.03750000
v -0.02739330 0.01299030 0.03750000
v -0.02825490 0.01290100 0.03750000
v -0.02910180 0.01271900 0.03750000
v -0.02992410 0.01244650 0.03750000
v -0.03071200 0.01208670 0.03750000
v -0.03145650 0.01164380 0.03750000
v -0.03214870 0.01112300 0.03750000
v -0.03278050 0.01053040 0.03750000
v -0.03334460 0.00987304 0.03750000
v -0.03383420 0.00915851 0.03750000
v -0.03424380 0.00839522 0.03750000
v -0.03456840 0.00759212 0.03750000
v -0.03480430 0.00675864 0.03750000
v -0.03494870 0.00590453 0.03750000
v -0.03498930 0.00541440 0.03990000
v -0.03499990 0.00503983 0.03750000
v -0.03495730 0.00417465 0.03750000
v -0.03482140 0.00331915 0.03750000
v -0.03459380 0.00248336 0.03750000
v -0.03427720 0.00167707 0.03750000
v -0.03387530 0.00090974 0.03750000
v -0.03339280 0.00019037 0.03750000
v -0.03283530 -0.00047261 0.03750000
v -0.03220940 -0.00107144 0.03750000
v -0.03152240 -0.00159908 0.03750000
v -0.03078240 -0.00204935 0.03750000
v -0.02999810 -0.00241698 0.03750000
v -0.02917860 -0.00269765 0.03750000
v -0.02833350 -0.00288807 0.03750000
v -0.02747290 -0.00298601 0.03750000
v -0.00000000 0.00880000 0.03750000
v -0.01400000 0.00880000 0.03750000
v -0.03580000 0.01480000 0.03750000
v -0.01400000 0.01480000 0.03750000
v -0.01500000 0.01380000 0.03750000
v -0.01500000 0.00980000 0.03750000
v -0.01400000 0.01480000 0.04150000
v -0.01500000 0.01380000 0.04150000
v -0.00000000 0.01480000 0.04150000
v -0.00000000 0.00880000 0.04150000
v -0.01500000 0.00980000 0.04150000
v -0.01400000 0.00880000 0.04150000
v -0.03580000 0.00020000 0.02880000
v -0.03575720 -0.00045263 0.02880000
v -0.03562960 -0.00109410 0.02880000
v -0.03541940 -0.00171342 0.02880000
v -0.03513010 -0.00230000 0.02880000
v -0.03476680 -0.00284381 0.02880000
v -0.03433550 -0.00333553 0.02880000
v -0.03384380 -0.00376677 0.02880000
v -0.03330000 -0.00413013 0.02880000
v -0.03271340 -0.00441940 0.02880000
v -0.03209410 -0.00462963 0.02880000
v -0.03145260 -0.00475722 0.02880000
v -0.00247906 -0.00475442 0.02880000
v -0.00197394 -0.00461908 0.02880000
v -0.00150000 -0.00439808 0.02880000
v -0.00107164 -0.00409813 0.02880000
v -0.00070187 -0.00372836 0.02880000
v -0.00040192 -0.00330000 0.02880000
v -0.00018092 -0.00282606 0.02880000
v -0.00004558 -0.00232094 0.02880000
v -0.00000000 -0.00180000 0.02880000
v -0.00000000 0.01180000 0.02880000
v -0.00004558 0.01232090 0.02880000
v -0.00000000 0.01480000 0.02880000
v -0.00018092 0.01282610 0.02880000
v -0.00040192 0.01330000 0.02880000
v -0.00070187 0.01372840 0.02880000
v -0.00107164 0.01409810 0.02880000
v -0.00150000 0.01439810 0.02880000
v -0.00197394 0.01461910 0.02880000
v -0.00247906 0.01475440 0.02880000
v -0.00300000 0.01480000 0.02880000
v -0.03080000 0.01480000 0.02880000
v -0.03145260 0.01475720 0.02880000
v -0.03580000 0.01480000 0.02880000
v -0.03209410 0.01462960 0.02880000
v -0.03271340 0.01441940 0.02880000
v -0.03330000 0.01413010 0.02880000
v -0.03384380 0.01376680 0.02880000
v -0.03433550 0.01333550 0.02880000
v -0.03476680 0.01284380 0.02880000
v -0.03513010 0.01230000 0.02880000
v -0.03541940 0.01171340 0.02880000
v -0.03562960 0.01109410 0.02880000
v -0.03575720 0.01045260 0.02880000
v -0.03580000 0.00980000 0.02880000
v -0.03580000 0.00020000 0.01640000
v -0.03575720 -0.00045263 0.01640000
v -0.03562960 -0.00109410 0.01640000
v -0.03541940 -0.00171342 0.01640000
v -0.03513010 -0.00230000 0.01640000
v -0.03476680 -0.00284381 0.01640000
v -0.03433550 -0.00333553 0.01640000
v -0.03384380 -0.00376677 0.01640000
v -0.03330000 -0.00413013 0.01640000
v -0.03271340 -0.00441940 0.01640000
v -0.03209410 -0.00462963 0.01640000
v -0.03145260 -0.00475722 0.01640000
v -0.03080000 0.01480000 0.01640000
v -0.03145260 0.01475720 0.01640000
v -0.03080000 0.01480000 0.02100000
v -0.03209410 0.01462960 0.01640000
v -0.03271340 0.01441940 0.01640000
v -0.03330000 0.01413010 0.01640000
v -0.03384380 0.01376680 0.01640000
v -0.03433550 0.01333550 0.01640000
v -0.03476680 0.01284380 0.01640000
v -0.03513010 0.01230000 0.01640000
v -0.03541940 0.01171340 0.01640000
v -0.03562960 0.01109410 0.01640000
v -0.03575720 0.01045260 0.01640000
v -0.03580000 0.00980000 0.01640000
v -0.00273853 -0.00478858 0.02260000
v -0.00222354 -0.00469778 0.02260000
v -0.00173215 -0.00451892 0.02260000
v -0.00127927 -0.00425746 0.02260000
v -0.00087868 -0.00392132 0.02260000
v -0.00054254 -0.00352073 0.02260000
v -0.00028108 -0.00306785 0.02260000
v -0.00010222 -0.00257646 0.02260000
v -0.00001142 -0.00206147 0.02260000
v -0.00000000 -0.00180000 0.01640000
v -0.00197394 -0.00461908 0.01640000
v -0.00247906 -0.00475442 0.01640000
v -0.00150000 -0.00439808 0.01640000
v -0.00107164 -0.00409813 0.01640000
v -0.00070187 -0.00372836 0.01640000
v -0.00040192 -0.00330000 0.01640000
v -0.00018092 -0.00282606 0.01640000
v -0.00004558 -0.00232094 0.01640000
v -0.00300000 0.01480000 0.02100000
v -0.00000000 0.01180000 0.01640000
v -0.00001142 0.01206150 0.02260000
v -0.00010222 0.01257650 0.02260000
v -0.00028108 0.01306790 0.02260000
v -0.00054254 0.01352070 0.02260000
v -0.00087868 0.01392130 0.02260000
v -0.00127927 0.01425750 0.02260000
v -0.00173215 0.01451890 0.02260000
v -0.00222354 0.01469780 0.02260000
v -0.00273853 0.01478860 0.02260000
v -0.00018092 0.01282610 0.01640000
v -0.00004558 0.01232090 0.01640000
v -0.00040192 0.01330000 0.01640000
v -0.00070187 0.01372840 0.01640000
v -0.00107164 0.01409810 0.01640000
v -0.00150000 0.01439810 0.01640000
v -0.00197394 0.01461910 0.01640000
v -0.00247906 0.01475440 0.01640000
v -0.00300000 0.01480000 0.01640000
v -0.00000000 0.01480000 0.01640000
v -0.00000000 0.01480000 0.02100000
v -0.03580000 0.01480000 0.01640000
v -0.03580000 0.01480000 0.02100000
v -0.03620000 0.00158653 0.00526620
v -0.03620000 0.00120688 0.00381359
v -0.03620000 0.00226034 0.00501407
v -0.03620000 0.00061060 0.00395312
v -0.03620000 0.00088558 0.00542823
v -0.03620000 0.00016948 0.00549739
v -0.03620000 -0.00000000 0.00400000
v -0.03620000 -0.00054952 0.00547248
v -0.03620000 -0.00061060 0.00395312
v -0.03620000 -0.00125912 0.00535393
v -0.03620000 -0.00120688 0.00381359
v -0.03620000 -0.00194718 0.00514378
v -0.03620000 -0.00177488 0.00358466
v -0.03620000 -0.00260192 0.00484562
v -0.03620000 -0.00230127 0.00327172
v -0.03620000 -0.00321214 0.00446454
v -0.03620000 -0.00376740 0.00400708
v -0.03620000 -0.00277373 0.00288209
v -0.03620000 -0.00425820 0.00348105
v -0.03620000 -0.00318117 0.00242490
v -0.03620000 -0.00467614 0.00289547
v -0.03620000 -0.00351405 0.00191088
v -0.03620000 -0.00501407 0.00226034
v -0.03620000 -0.00376456 0.00135207
v -0.03620000 -0.00526620 0.00158653
v -0.03620000 -0.00392683 0.00076156
v -0.03620000 -0.00542823 0.00088558
v -0.03620000 -0.00399706 0.00015321
v -0.03620000 -0.00549739 0.00016948
v -0.03620000 -0.00547248 -0.00054952
v -0.03620000 -0.00397361 -0.00045873
v -0.03620000 -0.00535393 -0.00125912
v -0.03620000 -0.00385701 -0.00105993
v -0.03620000 -0.00514378 -0.00194718
v -0.03620000 -0.00365001 -0.00163627
v -0.03620000 -0.00484562 -0.00260192
v -0.03620000 -0.00335746 -0.00217427
v -0.03620000 -0.00446454 -0.00321214
v -0.03620000 -0.00298621 -0.00266130
v -0.03620000 -0.00400708 -0.00376740
v -0.03620000 -0.00254497 -0.00308596
v -0.03620000 -0.00348105 -0.00425820
v -0.03620000 -0.00289547 -0.00467614
v -0.03620000 -0.00204407 -0.00343828
v -0.03620000 -0.00226034 -0.00501407
v -0.03620000 -0.00149527 -0.00371001
v -0.03620000 -0.00158653 -0.00526620
v -0.03620000 -0.00091141 -0.00389478
v -0.03620000 -0.00088558 -0.00542823
v -0.03620000 -0.00030620 -0.00398826
v -0.03620000 -0.00016948 -0.00549739
v -0.03620000 0.00030620 -0.00398826
v -0.03620000 0.00054952 -0.00547248
v -0.03620000 0.00091141 -0.00389478
v -0.03620000 0.00125912 -0.00535393
v -0.03620000 0.00194718 -0.00514378
v -0.03620000 0.00149527 -0.00371001
v -0.03620000 0.00260192 -0.00484562
v -0.03620000 0.00204407 -0.00343828
v -0.03620000 0.00321214 -0.00446454
v -0.03620000 0.00254497 -0.00308596
v -0.03620000 0.00376740 -0.00400708
v -0.03620000 0.00298621 -0.00266130
v -0.03620000 0.00425820 -0.00348105
v -0.03620000 0.00335746 -0.00217427
v -0.03620000 0.00467614 -0.00289547
v -0.03620000 0.00365001 -0.00163627
v -0.03620000 0.00501407 -0.00226034
v -0.03620000 0.00526620 -0.00158653
v -0.03620000 0.00385701 -0.00105993
v -0.03620000 0.00542823 -0.00088558
v -0.03620000 0.00397361 -0.00045873
v -0.03620000 0.00549739 -0.00016948
v -0.03620000 0.00399706 0.00015321
v -0.03620000 0.00547248 0.00054952
v -0.03620000 0.00392683 0.00076156
v -0.03620000 0.00535393 0.00125912
v -0.03620000 0.00376456 0.00135207
v -0.03620000 0.00514378 0.00194718
v -0.03620000 0.00351405 0.00191088
v -0.03620000 0.00484562 0.00260192
v -0.03620000 0.00446454 0.00321214
v -0.03620000 0.00318117 0.00242490
v -0.03620000 0.00400708 0.00376740
v -0.03620000 0.00277373 0.00288209
v -0.03620000 0.00348105 0.00425820
v -0.03620000 0.00230127 0.00327172
v -0.03620000 0.00289547 0.00467614
v -0.03620000 0.00177488 0.00358466
v -0.03920000 0.00260327 0.00415126
v -0.03920000 -0.00138673 -0.00469968
v -0.03920000 0.00201376 0.00446708
v -0.03920000 -0.00073388 -0.00484473
v -0.03920000 0.00314428 0.00375812
v -0.03920000 -0.00006735 -0.00489954
v -0.03920000 0.00362673 0.00329497
v -0.03920000 0.00060043 -0.00486307
v -0.03920000 0.00404161 0.00277044
v -0.03920000 0.00125703 -0.00473602
v -0.03920000 0.00438121 0.00219431
v -0.03920000 0.00189021 -0.00452074
v -0.03920000 0.00463920 0.00157729
v -0.03920000 0.00248817 -0.00422125
v -0.03920000 0.00481076 0.00093090
v -0.03920000 0.00303979 -0.00384313
v -0.03920000 0.00489271 0.00026716
v -0.03920000 0.00353479 -0.00339342
v -0.03920000 0.00488352 -0.00040155
v -0.03920000 0.00396393 -0.00288049
v -0.03920000 0.00478335 -0.00106278
v -0.03920000 0.00431924 -0.00231390
v -0.03920000 -0.00201376 -0.00446708
v -0.03920000 0.00138673 0.00469968
v -0.03920000 -0.00260327 -0.00415126
v -0.03920000 0.00073388 0.00484473
v -0.03920000 -0.00314428 -0.00375812
v -0.03920000 0.00006735 0.00489954
v -0.03920000 -0.00362673 -0.00329497
v -0.03920000 -0.00060043 0.00486307
v -0.03920000 -0.00404161 -0.00277044
v -0.03920000 -0.00125703 0.00473602
v -0.03920000 -0.00438121 -0.00219431
v -0.03920000 -0.00189021 0.00452074
v -0.03920000 -0.00463920 -0.00157729
v -0.03920000 -0.00248817 0.00422125
v -0.03920000 -0.00481076 -0.00093090
v -0.03920000 -0.00303979 0.00384313
v -0.03920000 -0.00489271 -0.00026716
v -0.03920000 -0.00353479 0.00339342
v -0.03920000 -0.00488352 0.00040155
v -0.03920000 -0.00396393 0.00288049
v -0.03920000 -0.00478335 0.00106278
v -0.03920000 -0.00431924 0.00231390
v -0.03670000 0.00162970 0.00535762
v -0.03630000 0.00230143 0.00510523
v -0.03670000 0.00230143 0.00510523
v -0.03630000 0.00162970 0.00535762
v -0.03670000 0.00093120 0.00552203
v -0.03630000 0.00093120 0.00552203
v -0.03670000 0.00021741 0.00559578
v -0.03630000 0.00021741 0.00559578
v -0.03670000 -0.00049994 0.00557764
v -0.03630000 -0.00049994 0.00557764
v -0.03670000 -0.00120909 0.00546791
v -0.03630000 -0.00120909 0.00546791
v -0.03670000 -0.00189839 0.00526841
v -0.03630000 -0.00189839 0.00526841
v -0.03670000 -0.00255651 0.00498239
v -0.03630000 -0.00255651 0.00498239
v -0.03670000 -0.00317266 0.00461457
v -0.03630000 -0.00317266 0.00461457
v -0.03670000 -0.00373671 0.00417097
v -0.03630000 -0.00373671 0.00417097
v -0.03670000 -0.00423940 0.00365889
v -0.03630000 -0.00423940 0.00365889
v -0.03670000 -0.00467248 0.00308673
v -0.03630000 -0.00467248 0.00308673
v -0.03670000 -0.00502884 0.00246388
v -0.03630000 -0.00502884 0.00246388
v -0.03670000 -0.00530263 0.00180058
v -0.03630000 -0.00530263 0.00180058
v -0.03670000 -0.00548935 0.00110771
v -0.03630000 -0.00548935 0.00110771
v -0.03670000 -0.00558593 0.00039665
v -0.03630000 -0.00558593 0.00039665
v -0.03670000 -0.00559080 -0.00032091
v -0.03630000 -0.00559080 -0.00032091
v -0.03670000 -0.00550386 -0.00103322
v -0.03630000 -0.00550386 -0.00103322
v -0.03670000 -0.00532655 -0.00172855
v -0.03630000 -0.00532655 -0.00172855
v -0.03670000 -0.00506177 -0.00239550
v -0.03630000 -0.00506177 -0.00239550
v -0.03670000 -0.00471389 -0.00302312
v -0.03630000 -0.00471389 -0.00302312
v -0.03670000 -0.00428860 -0.00360110
v -0.03630000 -0.00428860 -0.00360110
v -0.03670000 -0.00379289 -0.00411995
v -0.03630000 -0.00379289 -0.00411995
v -0.03670000 -0.00323490 -0.00457115
v -0.03630000 -0.00323490 -0.00457115
v -0.03670000 -0.00262380 -0.00494729
v -0.03630000 -0.00262380 -0.00494729
v -0.03670000 -0.00196961 -0.00524220
v -0.03630000 -0.00196961 -0.00524220
v -0.03670000 -0.00128309 -0.00545103
v -0.03630000 -0.00128309 -0.00545103
v -0.03670000 -0.00057549 -0.00557035
v -0.03630000 -0.00057549 -0.00557035
v -0.03670000 0.00014156 -0.00559821
v -0.03630000 0.00014156 -0.00559821
v -0.03670000 0.00085628 -0.00553415
v -0.03630000 0.00085628 -0.00553415
v -0.03670000 0.00155694 -0.00537921
v -0.03630000 0.00155694 -0.00537921
v -0.03670000 0.00223203 -0.00513595
v -0.03630000 0.00223203 -0.00513595
v -0.03670000 0.00287048 -0.00480836
v -0.03630000 0.00287048 -0.00480836
v -0.03670000 0.00346179 -0.00440182
v -0.03630000 0.00346179 -0.00440182
v -0.03670000 0.00399626 -0.00392299
v -0.03630000 0.00399626 -0.00392299
v -0.03670000 0.00446512 -0.00337975
v -0.03630000 0.00446512 -0.00337975
v -0.03670000 0.00486065 -0.00278102
v -0.03630000 0.00486065 -0.00278102
v -0.03670000 0.00517637 -0.00213662
v -0.03630000 0.00517637 -0.00213662
v -0.03670000 0.00540710 -0.00145714
v -0.03630000 0.00540710 -0.00145714
v -0.03670000 0.00554904 -0.00075373
v -0.03630000 0.00554904 -0.00075373
v -0.03670000 0.00559987 -0.00003795
v -0.03630000 0.00559987 -0.00003795
v -0.03670000 0.00555875 0.00067846
v -0.03630000 0.00555875 0.00067846
v -0.03670000 0.00542635 0.00138373
v -0.03630000 0.00542635 0.00138373
v -0.03670000 0.00520486 0.00206627
v -0.03630000 0.00520486 0.00206627
v -0.03670000 0.00489789 0.00271489
v -0.03630000 0.00489789 0.00271489
v -0.03670000 0.00451051 0.00331893
v -0.03630000 0.00451051 0.00331893
v -0.03670000 0.00404906 0.00386847
v -0.03630000 0.00404906 0.00386847
v -0.03670000 0.00352113 0.00435450
v -0.03630000 0.00352113 0.00435450
v -0.03670000 0.00293538 0.00476902
v -0.03630000 0.00293538 0.00476902
v -0.03680000 0.00265639 0.00423599
v -0.03910000 0.00265639 0.00423599
v -0.03680000 0.00205485 0.00455824
v -0.03910000 0.00320845 0.00383482
v -0.03680000 0.00320845 0.00383482
v -0.03910000 0.00370074 0.00336222
v -0.03680000 0.00370074 0.00336222
v -0.03910000 0.00412410 0.00282698
v -0.03680000 0.00412410 0.00282698
v -0.03910000 0.00447062 0.00223909
v -0.03680000 0.00447062 0.00223909
v -0.03910000 0.00473387 0.00160948
v -0.03680000 0.00473387 0.00160948
v -0.03910000 0.00490894 0.00094990
v -0.03680000 0.00490894 0.00094990
v -0.03910000 0.00499256 0.00027261
v -0.03680000 0.00499256 0.00027261
v -0.03910000 0.00498318 -0.00040975
v -0.03680000 0.00498318 -0.00040975
v -0.03910000 0.00488098 -0.00108447
v -0.03680000 0.00488098 -0.00108447
v -0.03910000 0.00468784 -0.00173900
v -0.03680000 0.00468784 -0.00173900
v -0.03910000 0.00440739 -0.00236113
v -0.03680000 0.00440739 -0.00236113
v -0.03910000 0.00404483 -0.00293928
v -0.03680000 0.00404483 -0.00293928
v -0.03910000 0.00360693 -0.00346267
v -0.03680000 0.00360693 -0.00346267
v -0.03910000 0.00310183 -0.00392156
v -0.03680000 0.00310183 -0.00392156
v -0.03910000 0.00253895 -0.00430740
v -0.03680000 0.00253895 -0.00430740
v -0.03910000 0.00192878 -0.00461300
v -0.03680000 0.00192878 -0.00461300
v -0.03910000 0.00128268 -0.00483267
v -0.03680000 0.00128268 -0.00483267
v -0.03910000 0.00061268 -0.00496232
v -0.03680000 0.00061268 -0.00496232
v -0.03910000 -0.00006872 -0.00499953
v -0.03680000 -0.00006872 -0.00499953
v -0.03910000 -0.00074885 -0.00494360
v -0.03680000 -0.00074885 -0.00494360
v -0.03910000 -0.00141503 -0.00479559
v -0.03680000 -0.00141503 -0.00479559
v -0.03910000 -0.00205485 -0.00455824
v -0.03680000 -0.00205485 -0.00455824
v -0.03910000 -0.00265639 -0.00423599
v -0.03680000 -0.00265639 -0.00423599
v -0.03910000 -0.00320845 -0.00383482
v -0.03680000 -0.00320845 -0.00383482
v -0.03910000 -0.00370074 -0.00336222
v -0.03680000 -0.00370074 -0.00336222
v -0.03910000 -0.00412410 -0.00282698
v -0.03680000 -0.00412410 -0.00282698
v -0.03910000 -0.00447062 -0.00223909
v -0.03680000 -0.00447062 -0.00223909
v -0.03910000 -0.00473387 -0.00160948
v -0.03680000 -0.00473387 -0.00160948
v -0.03910000 -0.00490894 -0.00094990
v -0.03680000 -0.00490894 -0.00094990
v -0.03910000 -0.00499256 -0.00027261
v -0.03680000 -0.00499256 -0.00027261
v -0.03910000 -0.00498318 0.00040975
v -0.03680000 -0.00498318 0.00040975
v -0.03910000 -0.00488098 0.00108447
v -0.03680000 -0.00488098 0.00108447
v -0.03910000 -0.00468784 0.00173900
v -0.03680000 -0.00468784 0.00173900
v -0.03910000 -0.00440739 0.00236113
v -0.03680000 -0.00440739 0.00236113
v -0.03910000 -0.00404483 0.00293928
v -0.03680000 -0.00404483 0.00293928
v -0.03910000 -0.00360693 0.00346267
v -0.03680000 -0.00360693 0.00346267
v -0.03910000 -0.00310183 0.00392156
v -0.03680000 -0.00310183 0.00392156
v -0.03910000 -0.00253895 0.00430740
v -0.03680000 -0.00253895 0.00430740
v -0.03910000 -0.00192878 0.00461300
v -0.03680000 -0.00192878 0.00461300
v -0.03910000 -0.00128268 0.00483267
v -0.03680000 -0.00128268 0.00483267
v -0.03910000 -0.00061268 0.00496232
v -0.03680000 -0.00061268 0.00496232
v -0.03910000 0.00006872 0.00499953
v -0.03680000 0.00006872 0.00499953
v -0.03910000 0.00074885 0.00494360
v -0.03680000 0.00074885 0.00494360
v -0.03910000 0.00141503 0.00479559
v -0.03680000 0.00141503 0.00479559
v -0.03910000 0.00205485 0.00455824
v -0.03680000 0.00158653 0.00526620
v -0.03680000 0.00226034 0.00501407
v -0.03680000 0.00088558 0.00542823
v -0.03680000 0.00016948 0.00549739
v -0.03680000 -0.00054952 0.00547248
v -0.03680000 -0.00125912 0.00535393
v -0.03680000 -0.00194718 0.00514378
v -0.03680000 -0.00260192 0.00484562
v -0.03680000 -0.00321214 0.00446454
v -0.03680000 -0.00376740 0.00400708
v -0.03680000 -0.00425820 0.00348105
v -0.03680000 -0.00467614 0.00289547
v -0.03680000 -0.00501407 0.00226034
v -0.03680000 -0.00526620 0.00158653
v -0.03680000 -0.00542823 0.00088558
v -0.03680000 -0.00549739 0.00016948
v -0.03680000 -0.00547248 -0.00054952
v -0.03680000 -0.00535393 -0.00125912
v -0.03680000 -0.00514378 -0.00194718
v -0.03680000 -0.00484562 -0.00260192
v -0.03680000 -0.00446454 -0.00321214
v -0.03680000 -0.00400708 -0.00376740
v -0.03680000 -0.00348105 -0.00425820
v -0.03680000 -0.00289547 -0.00467614
v -0.03680000 -0.00226034 -0.00501407
v -0.03680000 -0.00158653 -0.00526620
v -0.03680000 0.00348105 0.00425820
v -0.03680000 0.00289547 0.00467614
v -0.03680000 0.00400708 0.00376740
v -0.03680000 0.00446454 0.00321214
v -0.03680000 0.00484562 0.00260192
v -0.03680000 0.00514378 0.00194718
v -0.03680000 0.00535393 0.00125912
v -0.03680000 0.00547248 0.00054952
v -0.03680000 0.00549739 -0.00016948
v -0.03680000 0.00542823 -0.00088558
v -0.03680000 0.00526620 -0.00158653
v -0.03680000 0.00501407 -0.00226034
v -0.03680000 0.00467614 -0.00289547
v -0.03680000 0.00425820 -0.00348105
v -0.03680000 0.00376740 -0.00400708
v -0.03680000 0.00321214 -0.00446454
v -0.03680000 0.00260192 -0.00484562
v -0.03680000 0.00194718 -0.00514378
v -0.03680000 0.00125912 -0.00535393
v -0.03680000 0.00054952 -0.00547248
v -0.03680000 -0.00016948 -0.00549739
v -0.03680000 -0.00088558 -0.00542823
v 0.00550000 0.00061060 -0.00395312
v 0.00550000 0.00030620 0.00398826
v 0.00550000 -0.00000000 -0.00400000
v 0.00550000 0.00091141 0.00389478
v 0.00550000 0.00120688 -0.00381359
v 0.00550000 0.00149527 0.00371001
v 0.00550000 0.00177488 -0.00358466
v 0.00550000 0.00204407 0.00343828
v 0.00550000 0.00230127 -0.00327172
v 0.00550000 0.00254497 0.00308596
v 0.00550000 0.00277373 -0.00288209
v 0.00550000 0.00298621 0.00266130
v 0.00550000 0.00318117 -0.00242490
v 0.00550000 0.00335746 0.00217427
v 0.00550000 0.00351405 -0.00191088
v 0.00550000 0.00365001 0.00163627
v 0.00550000 0.00376456 -0.00135207
v 0.00550000 0.00385701 0.00105993
v 0.00550000 0.00392683 -0.00076156
v 0.00550000 0.00397361 0.00045873
v 0.00550000 -0.00030620 0.00398826
v 0.00550000 -0.00061060 -0.00395312
v 0.00550000 -0.00091141 0.00389478
v 0.00550000 -0.00120688 -0.00381359
v 0.00550000 -0.00149527 0.00371001
v 0.00550000 -0.00177488 -0.00358466
v 0.00550000 -0.00204407 0.00343828
v 0.00550000 -0.00230127 -0.00327172
v 0.00550000 -0.00254497 0.00308596
v 0.00550000 -0.00277373 -0.00288209
v 0.00550000 -0.00298621 0.00266130
v 0.00550000 -0.00318117 -0.00242490
v 0.00550000 -0.00335746 0.00217427
v 0.00550000 -0.00351405 -0.00191088
v 0.00550000 -0.00365001 0.00163627
v 0.00550000 -0.00376456 -0.00135207
v 0.00550000 -0.00385701 0.00105993
v 0.00550000 -0.00392683 -0.00076156
v 0.00550000 -0.00397361 0.00045873
v -0.03580000 -0.00800000 0.00000000
v -0.00000000 -0.00800000 0.00000000
v -0.03580000 -0.00800000 0.01200000
v -0.00000000 -0.00800000 0.01200000
v -0.00000000 -0.00795618 -0.00083623
v -0.01790000 -0.00799707 -0.00021664
v -0.01790000 -0.00792676 -0.00108000
v -0.03580000 -0.00795618 -0.00083623
v -0.03580000 -0.00782518 -0.00166329
v -0.01790000 -0.00776353 -0.00193070
v -0.03580000 -0.00760845 -0.00247214
v -0.01790000 -0.00750927 -0.00275877
v -0.00000000 -0.00760845 -0.00247214
v -0.00000000 -0.00730836 -0.00325389
v -0.00000000 -0.00782518 -0.00166329
v -0.03580000 -0.00730836 -0.00325389
v -0.01790000 -0.00716698 -0.00355449
v -0.00000000 -0.00692820 -0.00400000
v -0.03580000 -0.00692820 -0.00400000
v -0.01790000 -0.00674066 -0.00430854
v -0.00000000 -0.00647214 -0.00470228
v -0.03580000 -0.00647214 -0.00470228
v -0.01790000 -0.00623531 -0.00501208
v -0.00000000 -0.00594516 -0.00535304
v -0.03580000 -0.00594516 -0.00535304
v -0.01790000 -0.00565685 -0.00565685
v -0.00000000 -0.00535304 -0.00594516
v -0.03580000 -0.00535304 -0.00594516
v -0.01790000 -0.00501208 -0.00623531
v -0.00000000 -0.00470228 -0.00647214
v -0.03580000 -0.00470228 -0.00647214
v -0.01790000 -0.00430854 -0.00674066
v -0.00000000 -0.00400000 -0.00692820
v -0.03580000 -0.00400000 -0.00692820
v -0.01790000 -0.00355449 -0.00716698
v -0.00000000 -0.00325389 -0.00730836
v -0.03580000 -0.00325389 -0.00730836
v -0.01790000 -0.00275877 -0.00750927
v -0.00000000 -0.00247214 -0.00760845
v -0.03580000 -0.00247214 -0.00760845
v -0.01790000 -0.00193070 -0.00776353
v -0.00000000 -0.00166329 -0.00782518
v -0.03580000 -0.00166329 -0.00782518
v -0.01790000 -0.00108000 -0.00792676
v -0.00000000 -0.00083623 -0.00795618
v -0.03580000 -0.00083623 -0.00795618
v -0.01790000 -0.00021664 -0.00799707
v -0.00000000 -0.00000000 -0.00800000
v -0.03580000 -0.00000000 -0.00800000
v -0.00000000 0.02400000 -0.00800000
v -0.03580000 0.02400000 -0.00800000
v -0.00000000 -0.00166891 0.00731196
v -0.00000000 -0.00083973 0.00745284
v -0.00000000 -0.00000000 0.00750000
v -0.00000000 0.00083973 0.00745284
v -0.00000000 0.00166891 0.00731196
v -0.00000000 0.00247709 0.00707912
v -0.00000000 0.00325413 0.00675727
v -0.00000000 0.00399024 0.00635043
v -0.00000000 0.00467617 0.00586374
v -0.00000000 0.00530330 0.00530330
v -0.00000000 0.00586374 0.00467617
v -0.00000000 0.00635043 0.00399024
v -0.00000000 0.00675727 0.00325413
v -0.00000000 0.00707912 0.00247709
v -0.00000000 0.00731196 0.00166891
v -0.00000000 0.00745284 0.00083973
v -0.00000000 0.00750000 0.00000000
v -0.00000000 0.00745284 -0.00083973
v -0.00000000 0.00731196 -0.00166891
v -0.00000000 0.00707912 -0.00247709
v -0.00000000 0.00675727 -0.00325413
v -0.00000000 0.00635043 -0.00399024
v -0.00000000 0.00586374 -0.00467617
v -0.00000000 0.00530330 -0.00530330
v -0.00000000 0.00467617 -0.00586374
v -0.00000000 0.00399024 -0.00635043
v -0.00000000 0.00325413 -0.00675727
v -0.00000000 0.00247709 -0.00707912
v -0.00000000 0.00166891 -0.00731196
v -0.00000000 0.00083973 -0.00745284
v -0.00000000 -0.00000000 -0.00750000
v -0.00000000 -0.00083973 -0.00745284
v -0.00000000 -0.00166891 -0.00731196
v -0.00000000 -0.00247709 -0.00707912
v -0.00000000 -0.00325413 -0.00675727
v -0.00000000 -0.00399024 -0.00635043
v -0.00000000 -0.00467617 -0.00586374
v -0.00000000 -0.00530330 -0.00530330
v -0.00000000 -0.00586374 -0.00467617
v -0.00000000 -0.00635043 -0.00399024
v -0.00000000 -0.00675727 -0.00325413
v -0.00000000 -0.00707912 -0.00247709
v -0.00000000 -0.00731196 -0.00166891
v -0.00000000 -0.00745284 -0.00083973
v -0.00000000 -0.00750000 0.00000000
v -0.00000000 -0.00745284 0.00083973
v -0.00000000 -0.00731196 0.00166891
v -0.00000000 -0.00707912 0.00247709
v -0.00000000 -0.00675727 0.00325413
v -0.00000000 -0.00635043 0.00399024
v -0.00000000 -0.00586374 0.00467617
v -0.00000000 -0.00530330 0.00530330
v -0.00000000 -0.00467617 0.00586374
v -0.00000000 -0.00700000 0.01300000
v -0.00000000 -0.00399024 0.00635043
v -0.00000000 -0.00325413 0.00675727
v -0.00000000 -0.00247709 0.00707912
v -0.00000000 -0.00725882 0.01296590
v -0.00000000 -0.00750000 0.01286600
v -0.00000000 -0.00770711 0.01270710
v -0.00000000 0.02439020 -0.00796157
v -0.00000000 0.02600000 -0.00600000
v -0.00000000 0.02476540 -0.00784776
v -0.00000000 0.02511110 -0.00766294
v -0.00000000 0.02541420 -0.00741421
v -0.00000000 0.02566290 -0.00711114
v -0.00000000 0.02584780 -0.00676537
v -0.00000000 0.02600000 0.01300000
v -0.00000000 0.02270230 0.01947210
v -0.00000000 0.02200000 0.01992820
v -0.00000000 0.02125390 0.02030840
v -0.00000000 0.02047210 0.02060850
v -0.00000000 0.01966330 0.02082520
v -0.00000000 0.01883620 0.02095620
v -0.00000000 0.01800000 0.02100000
v -0.00000000 0.02582520 0.01466330
v -0.00000000 0.02560850 0.01547210
v -0.00000000 0.02530840 0.01625390
v -0.00000000 0.02492820 0.01700000
v -0.00000000 0.02447210 0.01770230
v -0.00000000 0.02394520 0.01835300
v -0.00000000 0.02335300 0.01894520
v -0.03580000 0.02600000 0.01300000
v -0.01790000 0.02599710 0.01321660
v -0.00000000 0.02595620 0.01383620
v -0.01790000 0.02592680 0.01408000
v -0.01790000 0.02576350 0.01493070
v -0.01790000 0.02550930 0.01575880
v -0.01790000 0.02516700 0.01655450
v -0.01790000 0.02474070 0.01730850
v -0.01790000 0.02423530 0.01801210
v -0.01790000 0.02365690 0.01865690
v -0.01790000 0.02301210 0.01923530
v -0.01790000 0.02230850 0.01974070
v -0.01790000 0.02155450 0.02016700
v -0.01790000 0.02075880 0.02050930
v -0.01790000 0.01993070 0.02076350
v -0.01790000 0.01908000 0.02092680
v -0.01790000 0.01821660 0.02099710
v -0.03580000 0.01800000 0.02100000
v -0.03580000 0.02582520 0.01466330
v -0.03580000 0.02595620 0.01383620
v -0.03580000 0.02560850 0.01547210
v -0.03580000 0.02530840 0.01625390
v -0.03580000 0.02492820 0.01700000
v -0.03580000 0.02447210 0.01770230
v -0.03580000 0.02394520 0.01835300
v -0.03580000 0.02335300 0.01894520
v -0.03580000 0.02270230 0.01947210
v -0.03580000 0.02200000 0.01992820
v -0.03580000 0.02125390 0.02030840
v -0.03580000 0.02047210 0.02060850
v -0.03580000 0.01966330 0.02082520
v -0.03580000 0.01883620 0.02095620
v -0.03580000 0.00392683 0.00076156
v -0.03580000 0.00399706 0.00015321
v -0.03580000 0.02600000 -0.00600000
v -0.03580000 0.02439020 -0.00796157
v -0.03580000 0.02476540 -0.00784776
v -0.03580000 0.02511110 -0.00766294
v -0.03580000 0.02541420 -0.00741421
v -0.03580000 0.02566290 -0.00711114
v -0.03580000 0.02584780 -0.00676537
v -0.03580000 0.00298621 -0.00266130
v -0.03580000 0.00254497 -0.00308596
v -0.03580000 0.00204407 -0.00343828
v -0.03580000 0.00149527 -0.00371001
v -0.03580000 0.00091141 -0.00389478
v -0.03580000 0.00030620 -0.00398826
v -0.03580000 -0.00030620 -0.00398826
v -0.03580000 -0.00091141 -0.00389478
v -0.03580000 -0.00149527 -0.00371001
v -0.03580000 -0.00204407 -0.00343828
v -0.03580000 -0.00254497 -0.00308596
v -0.03580000 -0.00298621 -0.00266130
v -0.03580000 -0.00335746 -0.00217427
v -0.03580000 -0.00365001 -0.00163627
v -0.03580000 -0.00385701 -0.00105993
v -0.03580000 -0.00397361 -0.00045873
v -0.03580000 -0.00399706 0.00015321
v -0.03580000 -0.00392683 0.00076156
v -0.03580000 -0.00376456 0.00135207
v -0.03580000 -0.00351405 0.00191088
v -0.03580000 -0.00318117 0.00242490
v -0.03580000 -0.00277373 0.00288209
v -0.03580000 -0.00750000 0.01286600
v -0.03580000 -0.00770711 0.01270710
v -0.03580000 -0.00725882 0.01296590
v -0.03580000 -0.00700000 0.01300000
v -0.03580000 -0.00230127 0.00327172
v -0.03580000 -0.00177488 0.00358466
v -0.03580000 -0.00120688 0.00381359
v -0.03580000 -0.00061060 0.00395312
v -0.03580000 0.00061060 0.00395312
v -0.03580000 -0.00000000 0.00400000
v -0.03580000 0.00120688 0.00381359
v -0.03580000 0.00177488 0.00358466
v -0.03580000 0.00335746 -0.00217427
v -0.03580000 0.00365001 -0.00163627
v -0.03580000 0.00385701 -0.00105993
v -0.03580000 0.00397361 -0.00045873
v -0.03580000 0.00376456 0.00135207
v -0.03580000 0.00351405 0.00191088
v -0.03580000 0.00318117 0.00242490
v -0.03580000 0.00277373 0.00288209
v -0.03580000 0.00230127 0.00327172
v -0.00000000 0.02596160 -0.00639018
v -0.00895000 0.02599930 -0.00605416
v -0.00895000 0.02594090 -0.00648268
v -0.00895000 0.02579170 -0.00688862
v -0.01790000 0.02579170 -0.00688862
v -0.01790000 0.02555880 -0.00725302
v -0.02685000 0.02555880 -0.00725302
v -0.02685000 0.02525300 -0.00755883
v -0.02685000 0.02579170 -0.00688862
v -0.01790000 0.02594090 -0.00648268
v -0.00895000 0.02555880 -0.00725302
v -0.01790000 0.02525300 -0.00755883
v -0.02685000 0.02488860 -0.00779174
v -0.00895000 0.02525300 -0.00755883
v -0.01790000 0.02488860 -0.00779174
v -0.02685000 0.02448270 -0.00794088
v -0.00895000 0.02488860 -0.00779174
v -0.01790000 0.02448270 -0.00794088
v -0.02685000 0.02405420 -0.00799927
v -0.00895000 0.02448270 -0.00794088
v -0.01790000 0.02405420 -0.00799927
v -0.00895000 0.02405420 -0.00799927
v -0.02685000 0.02594090 -0.00648268
v -0.01790000 0.02599930 -0.00605416
v -0.03580000 0.02596160 -0.00639018
v -0.02685000 0.02599930 -0.00605416
v -0.03068570 -0.00725882 0.01296590
v -0.03068570 -0.00750000 0.01286600
v -0.03068570 -0.00770711 0.01270710
v -0.02557140 -0.00770711 0.01270710
v -0.02557140 -0.00786602 0.01250000
v -0.02045710 -0.00786602 0.01250000
v -0.02045710 -0.00796593 0.01225880
v -0.01534290 -0.00796593 0.01225880
v -0.01022860 -0.00796593 0.01225880
v -0.00511429 -0.00796593 0.01225880
v -0.01022860 -0.00786602 0.01250000
v -0.00511429 -0.00786602 0.01250000
v -0.01022860 -0.00770711 0.01270710
v -0.00511429 -0.00770711 0.01270710
v -0.01022860 -0.00750000 0.01286600
v -0.00511429 -0.00750000 0.01286600
v -0.01022860 -0.00725882 0.01296590
v -0.00511429 -0.00725882 0.01296590
v -0.01534290 -0.00725882 0.01296590
v -0.02045710 -0.00725882 0.01296590
v -0.01534290 -0.00750000 0.01286600
v -0.02045710 -0.00750000 0.01286600
v -0.01534290 -0.00770711 0.01270710
v -0.02045710 -0.00770711 0.01270710
v -0.01534290 -0.00786602 0.01250000
v -0.03068570 -0.00786602 0.01250000
v -0.02557140 -0.00796593 0.01225880
v -0.03580000 -0.00786602 0.01250000
v -0.03068570 -0.00796593 0.01225880
v -0.03580000 -0.00796593 0.01225880
v -0.00000000 -0.00796593 0.01225880
v -0.00000000 -0.00786602 0.01250000
v -0.02557140 -0.00725882 0.01296590
v -0.02557140 -0.00750000 0.01286600
v 0.00200000 -0.00083973 -0.00745284
v 0.00200000 -0.00000000 -0.00750000
v 0.00200000 -0.00166891 -0.00731196
v 0.00200000 -0.00247709 -0.00707912
v 0.00200000 -0.00325413 -0.00675727
v 0.00200000 -0.00399024 -0.00635043
v 0.00200000 -0.00467617 -0.00586374
v 0.00200000 -0.00530330 -0.00530330
v 0.00200000 -0.00586374 -0.00467617
v 0.00200000 -0.00635043 -0.00399024
v 0.00200000 -0.00675727 -0.00325413
v 0.00200000 -0.00707912 -0.00247709
v 0.00200000 -0.00731196 -0.00166891
v 0.00200000 -0.00745284 -0.00083973
v 0.00200000 -0.00750000 0.00000000
v 0.00200000 -0.00745284 0.00083973
v 0.00200000 -0.00731196 0.00166891
v 0.00200000 -0.00707912 0.00247709
v 0.00200000 -0.00675727 0.00325413
v 0.00200000 -0.00635043 0.00399024
v 0.00200000 -0.00586374 0.00467617
v 0.00200000 -0.00530330 0.00530330
v 0.00200000 -0.00467617 0.00586374
v 0.00200000 -0.00399024 0.00635043
v 0.00200000 -0.00325413 0.00675727
v 0.00200000 -0.00247709 0.00707912
v 0.00200000 -0.00166891 0.00731196
v 0.00200000 -0.00083973 0.00745284
v 0.00200000 -0.00000000 0.00750000
v 0.00200000 0.00083973 0.00745284
v 0.00200000 0.00166891 0.00731196
v 0.00200000 0.00247709 0.00707912
v 0.00200000 0.00325413 0.00675727
v 0.00200000 0.00399024 0.00635043
v 0.00200000 0.00467617 0.00586374
v 0.00200000 0.00530330 0.00530330
v 0.00200000 0.00586374 0.00467617
v 0.00200000 0.00635043 0.00399024
v 0.00200000 0.00675727 0.00325413
v 0.00200000 0.00707912 0.00247709
v 0.00200000 0.00731196 0.00166891
v 0.00200000 0.00745284 0.00083973
v 0.00200000 0.00750000 0.00000000
v 0.00200000 0.00745284 -0.00083973
v 0.00200000 0.00731196 -0.00166891
v 0.00200000 0.00707912 -0.00247709
v 0.00200000 0.00675727 -0.00325413
v 0.00200000 0.00635043 -0.00399024
v 0.00200000 0.00586374 -0.00467617
v 0.00200000 0.00530330 -0.00530330
v 0.00200000 0.00467617 -0.00586374
v 0.00200000 0.00399024 -0.00635043
v 0.00200000 0.00325413 -0.00675727
v 0.00200000 0.00247709 -0.00707912
v 0.00200000 0.00166891 -0.00731196
v 0.00200000 0.00083973 -0.00745284
v 0.00200000 -0.00000000 -0.00500000
v 0.00200000 -0.00068083 -0.00495343
v 0.00200000 -0.00134898 -0.00481459
v 0.00200000 -0.00199201 -0.00458606
v 0.00200000 -0.00259792 -0.00427210
v 0.00200000 -0.00315544 -0.00387856
v 0.00200000 0.00068083 -0.00495343
v 0.00200000 0.00134898 -0.00481459
v 0.00200000 0.00199201 -0.00458606
v 0.00200000 0.00259792 -0.00427210
v 0.00200000 0.00315544 -0.00387856
v 0.00200000 0.00365418 -0.00341277
v 0.00200000 0.00408485 -0.00288340
v 0.00200000 0.00443943 -0.00230033
v 0.00200000 0.00471130 -0.00167440
v 0.00200000 0.00489542 -0.00101728
v 0.00200000 0.00498834 -0.00034121
v 0.00200000 0.00498834 0.00034121
v 0.00200000 0.00489542 0.00101728
v 0.00200000 0.00471130 0.00167440
v 0.00200000 0.00443943 0.00230033
v 0.00200000 0.00408485 0.00288340
v 0.00200000 0.00365418 0.00341277
v 0.00200000 0.00315544 0.00387856
v 0.00200000 0.00259792 0.00427210
v 0.00200000 0.00199201 0.00458606
v 0.00200000 0.00134898 0.00481459
v 0.00200000 0.00068083 0.00495343
v 0.00200000 -0.00000000 0.00500000
v 0.00200000 -0.00068083 0.00495343
v 0.00200000 -0.00134898 0.00481459
v 0.00200000 -0.00199201 0.00458606
v 0.00200000 -0.00259792 0.00427210
v 0.00200000 -0.00315544 0.00387856
v 0.00200000 -0.00365418 0.00341277
v 0.00200000 -0.00408485 0.00288340
v 0.00200000 -0.00443943 0.00230033
v 0.00200000 -0.00471130 0.00167440
v 0.00200000 -0.00489542 0.00101728
v 0.00200000 -0.00498834 0.00034121
v 0.00200000 -0.00498834 -0.00034121
v 0.00200000 -0.00489542 -0.00101728
v 0.00200000 -0.00471130 -0.00167440
v 0.00200000 -0.00443943 -0.00230033
v 0.00200000 -0.00408485 -0.00288340
v 0.00200000 -0.00365418 -0.00341277
v 0.00250000 -0.00068083 -0.00495343
v 0.00250000 -0.00000000 -0.00500000
v 0.00250000 -0.00134898 -0.00481459
v 0.00250000 -0.00199201 -0.00458606
v 0.00250000 -0.00259792 -0.00427210
v 0.00250000 -0.00315544 -0.00387856
v 0.00250000 -0.00365418 -0.00341277
v 0.00250000 -0.00408485 -0.00288340
v 0.00250000 -0.00443943 -0.00230033
v 0.00250000 -0.00471130 -0.00167440
v 0.00250000 -0.00489542 -0.00101728
v 0.00250000 -0.00498834 -0.00034121
v 0.00250000 -0.00498834 0.00034121
v 0.00250000 -0.00489542 0.00101728
v 0.00250000 -0.00471130 0.00167440
v 0.00250000 -0.00443943 0.00230033
v 0.00250000 -0.00408485 0.00288340
v 0.00250000 -0.00365418 0.00341277
v 0.00250000 -0.00315544 0.00387856
v 0.00250000 -0.00259792 0.00427210
v 0.00250000 -0.00199201 0.00458606
v 0.00250000 -0.00134898 0.00481459
v 0.00250000 -0.00068083 0.00495343
v 0.00250000 -0.00000000 0.00500000
v 0.00250000 0.00068083 0.00495343
v 0.00250000 0.00134898 0.00481459
v 0.00250000 0.00199201 0.00458606
v 0.00250000 0.00259792 0.00427210
v 0.00250000 0.00315544 0.00387856
v 0.00250000 0.00365418 0.00341277
v 0.00250000 0.00408485 0.00288340
v 0.00250000 0.00443943 0.00230033
v 0.00250000 0.00471130 0.00167440
v 0.00250000 0.00489542 0.00101728
v 0.00250000 0.00498834 0.00034121
v 0.00250000 0.00498834 -0.00034121
v 0.00250000 0.00489542 -0.00101728
v 0.00250000 0.00471130 -0.00167440
v 0.00250000 0.00443943 -0.00230033
v 0.00250000 0.00408485 -0.00288340
v 0.00250000 0.00365418 -0.00341277
v 0.00250000 0.00315544 -0.00387856
v 0.00250000 0.00259792 -0.00427210
v 0.00250000 0.00199201 -0.00458606
v 0.00250000 0.00134898 -0.00481459
v 0.00250000 0.00068083 -0.00495343
v 0.00250000 -0.00000000 -0.00400000
v 0.00250000 -0.00061060 -0.00395312
v 0.00250000 -0.00120688 -0.00381359
v 0.00250000 -0.00177488 -0.00358466
v 0.00250000 -0.00230127 -0.00327172
v 0.00250000 -0.00277373 -0.00288209
v 0.00250000 -0.00318117 -0.00242490
v 0.00250000 -0.00351405 -0.00191088
v 0.00250000 -0.00376456 -0.00135207
v 0.00250000 0.00061060 -0.00395312
v 0.00250000 0.00120688 -0.00381359
v 0.00250000 0.00177488 -0.00358466
v 0.00250000 0.00230127 -0.00327172
v 0.00250000 0.00277373 -0.00288209
v 0.00250000 0.00318117 -0.00242490
v 0.00250000 0.00351405 -0.00191088
v 0.00250000 0.00376456 -0.00135207
v 0.00250000 0.00392683 -0.00076156
v 0.00250000 0.00399706 -0.00015321
v 0.00250000 0.00397361 0.00045873
v 0.00250000 0.00385701 0.00105993
v 0.00250000 0.00365001 0.00163627
v 0.00250000 0.00335746 0.00217427
v 0.00250000 0.00298621 0.00266130
v 0.00250000 0.00254497 0.00308596
v 0.00250000 0.00204407 0.00343828
v 0.00250000 0.00149527 0.00371001
v 0.00250000 0.00091141 0.00389478
v 0.00250000 0.00030620 0.00398826
v 0.00250000 -0.00030620 0.00398826
v 0.00250000 -0.00091141 0.00389478
v 0.00250000 -0.00149527 0.00371001
v 0.00250000 -0.00204407 0.00343828
v 0.00250000 -0.00254497 0.00308596
v 0.00250000 -0.00298621 0.00266130
v 0.00250000 -0.00335746 0.00217427
v 0.00250000 -0.00365001 0.00163627
v 0.00250000 -0.00385701 0.00105993
v 0.00250000 -0.00397361 0.00045873
v 0.00250000 -0.00399706 -0.00015321
v 0.00250000 -0.00392683 -0.00076156
v 0.00550000 -0.00399706 -0.00015321
v 0.00550000 0.00399706 -0.00015321
f 1 2 3
f 1 4 2
f 1 5 4
f 1 6 5
f 1 7 6
f 5 8 4
f 9 10 2
f 2 10 3
f 3 10 11
f 12 3 11
f 13 14 15
f 13 16 14
f 13 17 16
f 16 17 18
f 18 17 19
f 20 19 21
f 22 21 23
f 24 23 25
f 26 25 27
f 28 27 29
f 30 29 31
f 32 31 33
f 34 33 35
f 36 35 37
f 38 37 39
f 40 38 39
f 18 19 20
f 20 21 22
f 22 23 24
f 24 25 26
f 26 27 28
f 28 29 30
f 30 31 32
f 32 33 34
f 34 35 36
f 36 37 38
f 14 41 15
f 15 41 42
f 42 41 43
f 44 43 45
f 46 45 47
f 48 47 49
f 50 49 51
f 52 51 53
f 54 53 55
f 56 55 57
f 58 57 59
f 60 59 61
f 62 61 63
f 64 63 65
f 66 65 67
f 68 66 67
f 42 43 44
f 44 45 46
f 46 47 48
f 48 49 50
f 50 51 52
f 52 53 54
f 54 55 56
f 56 57 58
f 58 59 60
f 60 61 62
f 62 63 64
f 64 65 66
f 69 43 70
f 69 45 43
f 69 71 45
f 45 71 47
f 47 71 72
f 49 72 73
f 51 73 74
f 53 74 75
f 55 75 76
f 57 76 77
f 59 77 78
f 61 78 79
f 63 79 80
f 65 80 81
f 67 81 82
f 83 82 84
f 68 84 85
f 66 85 86
f 64 86 87
f 62 87 88
f 60 88 89
f 58 89 90
f 56 90 91
f 54 91 92
f 52 92 93
f 50 93 94
f 48 94 95
f 46 95 96
f 44 96 97
f 42 97 98
f 15 98 99
f 13 99 100
f 17 100 101
f 19 101 102
f 21 102 103
f 23 103 104
f 25 104 105
f 27 105 106
f 29 106 107
f 31 107 108
f 33 108 109
f 35 109 110
f 37 110 111
f 39 111 112
f 113 112 114
f 40 114 115
f 38 115 116
f 36 116 117
f 34 117 118
f 32 118 119
f 30 119 120
f 28 120 121
f 26 121 122
f 24 122 123
f 22 123 124
f 20 124 125
f 18 125 126
f 16 126 127
f 14 127 128
f 41 128 70
f 43 41 70
f 47 72 49
f 49 73 51
f 51 74 53
f 53 75 55
f 55 76 57
f 57 77 59
f 59 78 61
f 61 79 63
f 63 80 65
f 65 81 67
f 67 82 83
f 83 84 68
f 68 85 66
f 66 86 64
f 64 87 62
f 62 88 60
f 60 89 58
f 58 90 56
f 56 91 54
f 54 92 52
f 52 93 50
f 50 94 48
f 48 95 46
f 46 96 44
f 44 97 42
f 42 98 15
f 15 99 13
f 13 100 17
f 17 101 19
f 19 102 21
f 21 103 23
f 23 104 25
f 25 105 27
f 27 106 29
f 29 107 31
f 31 108 33
f 33 109 35
f 35 110 37
f 37 111 39
f 39 112 113
f 113 114 40
f 40 115 38
f 38 116 36
f 36 117 34
f 34 118 32
f 32 119 30
f 30 120 28
f 28 121 26
f 26 122 24
f 24 123 22
f 22 124 20
f 20 125 18
f 18 126 16
f 16 127 14
f 14 128 41
f 69 70 11
f 10 69 11
f 10 71 69
f 10 72 71
f 10 73 72
f 10 74 73
f 10 75 74
f 10 76 75
f 10 77 76
f 10 78 77
f 10 79 78
f 10 80 79
f 10 81 80
f 10 129 81
f 81 129 82
f 82 129 130
f 84 130 85
f 84 82 130
f 70 128 11
f 11 128 127
f 126 11 127
f 126 125 11
f 11 125 124
f 123 11 124
f 123 122 11
f 11 122 121
f 120 11 121
f 120 119 11
f 11 119 118
f 117 11 118
f 117 116 11
f 11 116 115
f 114 11 115
f 114 131 11
f 114 112 131
f 131 112 111
f 110 131 111
f 110 109 131
f 131 109 108
f 107 131 108
f 107 106 131
f 131 106 105
f 104 131 105
f 104 103 131
f 131 103 102
f 101 131 102
f 101 100 131
f 131 100 99
f 98 131 99
f 98 132 131
f 98 97 132
f 132 97 96
f 133 96 95
f 94 133 95
f 94 93 133
f 133 93 92
f 91 133 92
f 91 134 133
f 91 90 134
f 134 90 89
f 88 134 89
f 88 130 134
f 88 87 130
f 130 87 86
f 85 130 86
f 132 96 133
f 135 136 137
f 137 136 138
f 138 136 139
f 140 138 139
f 135 132 136
f 136 132 133
f 136 133 139
f 139 133 134
f 139 134 140
f 140 134 130
f 140 130 138
f 138 130 129
f 141 142 12
f 12 142 143
f 144 12 143
f 144 145 12
f 12 145 146
f 147 12 146
f 147 148 12
f 12 148 149
f 150 12 149
f 150 151 12
f 12 151 152
f 3 12 152
f 2 153 9
f 9 153 154
f 155 9 154
f 155 156 9
f 9 156 157
f 158 9 157
f 158 159 9
f 9 159 160
f 161 9 160
f 162 163 164
f 164 163 165
f 166 164 165
f 166 167 164
f 164 167 168
f 169 164 168
f 169 170 164
f 164 170 171
f 172 164 171
f 173 174 175
f 175 174 176
f 177 175 176
f 177 178 175
f 175 178 179
f 180 175 179
f 180 181 175
f 175 181 182
f 183 175 182
f 183 184 175
f 175 184 185
f 186 175 185
f 187 188 141
f 141 188 142
f 142 188 189
f 143 189 190
f 144 190 191
f 145 191 192
f 146 192 147
f 146 145 192
f 142 189 143
f 143 190 144
f 144 191 145
f 192 193 147
f 147 193 148
f 148 193 194
f 195 148 194
f 195 149 148
f 195 196 149
f 149 196 150
f 150 196 197
f 151 197 198
f 152 198 1
f 3 152 1
f 150 197 151
f 151 198 152
f 199 200 201
f 201 200 174
f 173 201 174
f 200 202 174
f 174 202 176
f 176 202 203
f 177 203 204
f 178 204 205
f 179 205 180
f 179 178 205
f 176 203 177
f 177 204 178
f 205 206 180
f 180 206 181
f 181 206 207
f 208 181 207
f 208 182 181
f 208 209 182
f 182 209 183
f 183 209 210
f 184 210 211
f 185 211 212
f 186 185 212
f 183 210 184
f 184 211 185
f 2 4 213
f 153 213 214
f 154 214 215
f 155 215 216
f 156 216 217
f 157 217 218
f 158 218 219
f 159 219 220
f 160 220 221
f 161 221 222
f 161 160 221
f 223 214 224
f 223 215 214
f 223 225 215
f 215 225 216
f 216 225 226
f 217 226 227
f 218 227 228
f 219 228 229
f 220 229 230
f 221 230 222
f 221 220 230
f 216 226 217
f 217 227 218
f 218 228 219
f 219 229 220
f 160 159 220
f 159 158 219
f 158 157 218
f 157 156 217
f 156 155 216
f 155 154 215
f 154 153 214
f 153 2 213
f 4 224 213
f 213 224 214
f 231 201 172
f 172 201 173
f 132 173 131
f 132 172 173
f 132 137 172
f 132 135 137
f 173 175 131
f 137 164 172
f 162 232 233
f 163 233 234
f 165 234 235
f 166 235 236
f 167 236 237
f 168 237 238
f 169 238 239
f 170 239 240
f 171 240 241
f 172 241 231
f 172 171 241
f 242 234 243
f 242 235 234
f 242 244 235
f 235 244 236
f 236 244 245
f 237 245 246
f 238 246 247
f 239 247 248
f 240 248 249
f 241 249 231
f 241 240 249
f 236 245 237
f 237 246 238
f 238 247 239
f 239 248 240
f 249 250 231
f 171 170 240
f 170 169 239
f 169 168 238
f 168 167 237
f 167 166 236
f 166 165 235
f 165 163 234
f 163 162 233
f 232 243 233
f 233 243 234
f 250 251 231
f 231 251 252
f 212 211 253
f 253 211 210
f 209 253 210
f 209 208 253
f 253 208 207
f 206 253 207
f 206 205 253
f 253 205 204
f 203 253 204
f 203 202 253
f 253 202 200
f 199 253 200
f 250 249 251
f 251 249 248
f 247 251 248
f 247 246 251
f 251 246 245
f 244 251 245
f 244 242 251
f 251 242 243
f 232 251 243
f 222 230 8
f 8 230 229
f 228 8 229
f 228 227 8
f 8 227 226
f 225 8 226
f 225 223 8
f 8 223 224
f 4 8 224
f 1 198 7
f 7 198 197
f 196 7 197
f 196 195 7
f 7 195 194
f 193 7 194
f 193 192 7
f 7 192 191
f 190 7 191
f 190 189 7
f 7 189 188
f 187 7 188
f 201 254 199
f 199 254 253
f 255 256 257
f 255 258 256
f 255 259 258
f 258 259 260
f 261 260 262
f 263 262 264
f 265 264 266
f 267 266 268
f 269 268 270
f 271 269 270
f 271 272 269
f 271 273 272
f 272 273 274
f 274 273 275
f 276 275 277
f 278 277 279
f 280 279 281
f 282 281 283
f 284 282 283
f 284 285 282
f 284 286 285
f 285 286 287
f 287 286 288
f 289 288 290
f 291 290 292
f 293 292 294
f 295 294 296
f 297 295 296
f 297 298 295
f 297 299 298
f 298 299 300
f 300 299 301
f 302 301 303
f 304 303 305
f 306 305 307
f 308 307 309
f 310 308 309
f 310 311 308
f 310 312 311
f 311 312 313
f 313 312 314
f 315 314 316
f 317 316 318
f 319 318 320
f 321 320 322
f 323 321 322
f 323 324 321
f 323 325 324
f 324 325 326
f 326 325 327
f 328 327 329
f 330 329 331
f 332 331 333
f 334 333 335
f 336 334 335
f 336 337 334
f 336 338 337
f 337 338 339
f 339 338 340
f 341 340 342
f 343 342 257
f 256 343 257
f 258 260 261
f 261 262 263
f 263 264 265
f 265 266 267
f 267 268 269
f 274 275 276
f 276 277 278
f 278 279 280
f 280 281 282
f 287 288 289
f 289 290 291
f 291 292 293
f 293 294 295
f 300 301 302
f 302 303 304
f 304 305 306
f 306 307 308
f 313 314 315
f 315 316 317
f 317 318 319
f 319 320 321
f 326 327 328
f 328 329 330
f 330 331 332
f 332 333 334
f 339 340 341
f 341 342 343
f 344 345 346
f 344 347 345
f 344 348 347
f 347 348 349
f 349 348 350
f 351 350 352
f 353 352 354
f 355 354 356
f 357 356 358
f 359 358 360
f 361 360 362
f 363 362 364
f 365 363 364
f 349 350 351
f 351 352 353
f 353 354 355
f 355 356 357
f 357 358 359
f 359 360 361
f 361 362 363
f 345 366 346
f 346 366 367
f 367 366 368
f 369 368 370
f 371 370 372
f 373 372 374
f 375 374 376
f 377 376 378
f 379 378 380
f 381 380 382
f 383 382 384
f 385 384 386
f 387 385 386
f 367 368 369
f 369 370 371
f 371 372 373
f 373 374 375
f 375 376 377
f 377 378 379
f 379 380 381
f 381 382 383
f 383 384 385
f 388 389 390
f 388 391 389
f 388 392 391
f 391 392 393
f 393 392 394
f 395 394 396
f 397 396 398
f 399 398 400
f 401 400 402
f 403 402 404
f 405 404 406
f 407 406 408
f 409 408 410
f 411 410 412
f 413 412 414
f 415 414 416
f 417 416 418
f 419 418 420
f 421 420 422
f 423 422 424
f 425 424 426
f 427 426 428
f 429 428 430
f 431 430 432
f 433 432 434
f 435 434 436
f 437 436 438
f 439 438 440
f 441 440 442
f 443 442 444
f 445 444 446
f 447 446 448
f 449 448 450
f 451 450 452
f 453 452 454
f 455 454 456
f 457 456 458
f 459 458 460
f 461 460 462
f 463 462 464
f 465 464 466
f 467 466 468
f 469 468 470
f 471 470 472
f 473 472 474
f 475 474 476
f 477 476 478
f 479 478 480
f 481 480 482
f 483 482 484
f 485 484 390
f 389 485 390
f 393 394 395
f 395 396 397
f 397 398 399
f 399 400 401
f 401 402 403
f 403 404 405
f 405 406 407
f 407 408 409
f 409 410 411
f 411 412 413
f 413 414 415
f 415 416 417
f 417 418 419
f 419 420 421
f 421 422 423
f 423 424 425
f 425 426 427
f 427 428 429
f 429 430 431
f 431 432 433
f 433 434 435
f 435 436 437
f 437 438 439
f 439 440 441
f 441 442 443
f 443 444 445
f 445 446 447
f 447 448 449
f 449 450 451
f 451 452 453
f 453 454 455
f 455 456 457
f 457 458 459
f 459 460 461
f 461 462 463
f 463 464 465
f 465 466 467
f 467 468 469
f 469 470 471
f 471 472 473
f 473 474 475
f 475 476 477
f 477 478 479
f 479 480 481
f 481 482 483
f 483 484 485
f 486 487 488
f 486 489 487
f 486 490 489
f 489 490 491
f 491 490 492
f 493 492 494
f 495 494 496
f 497 496 498
f 499 498 500
f 501 500 502
f 503 502 504
f 505 504 506
f 507 506 508
f 509 508 510
f 511 510 512
f 513 512 514
f 515 514 516
f 517 516 518
f 519 518 520
f 521 520 522
f 523 522 524
f 525 524 526
f 527 526 528
f 529 528 530
f 531 530 532
f 533 532 534
f 535 534 536
f 537 536 538
f 539 538 540
f 541 540 542
f 543 542 544
f 545 544 546
f 547 546 548
f 549 548 550
f 551 550 552
f 553 552 554
f 555 554 556
f 557 556 558
f 559 558 560
f 561 560 562
f 563 562 564
f 565 564 566
f 567 566 568
f 569 568 570
f 571 570 572
f 573 572 574
f 575 574 576
f 577 576 488
f 487 577 488
f 491 492 493
f 493 494 495
f 495 496 497
f 497 498 499
f 499 500 501
f 501 502 503
f 503 504 505
f 505 506 507
f 507 508 509
f 509 510 511
f 511 512 513
f 513 514 515
f 515 516 517
f 517 518 519
f 519 520 521
f 521 522 523
f 523 524 525
f 525 526 527
f 527 528 529
f 529 530 531
f 531 532 533
f 533 534 535
f 535 536 537
f 537 538 539
f 539 540 541
f 541 542 543
f 543 544 545
f 545 546 547
f 547 548 549
f 549 550 551
f 551 552 553
f 553 554 555
f 555 556 557
f 557 558 559
f 559 560 561
f 561 562 563
f 563 564 565
f 565 566 567
f 567 568 569
f 569 570 571
f 571 572 573
f 573 574 575
f 575 576 577
f 578 579 488
f 576 578 488
f 576 580 578
f 576 574 580
f 580 574 581
f 581 574 572
f 582 572 570
f 583 570 568
f 584 568 566
f 585 566 564
f 586 564 562
f 587 562 560
f 588 560 558
f 589 558 556
f 590 556 554
f 591 554 552
f 592 552 550
f 593 550 548
f 594 548 546
f 595 546 544
f 596 544 542
f 597 542 540
f 598 540 538
f 599 538 536
f 600 536 534
f 601 534 532
f 602 532 603
f 602 601 532
f 604 486 605
f 604 490 486
f 604 606 490
f 490 606 492
f 492 606 607
f 494 607 608
f 496 608 609
f 498 609 610
f 500 610 611
f 502 611 612
f 504 612 613
f 506 613 614
f 508 614 615
f 510 615 616
f 512 616 617
f 514 617 618
f 516 618 619
f 518 619 620
f 520 620 621
f 522 621 622
f 524 622 623
f 526 623 624
f 528 624 625
f 530 625 603
f 532 530 603
f 492 607 494
f 494 608 496
f 496 609 498
f 498 610 500
f 500 611 502
f 502 612 504
f 504 613 506
f 506 614 508
f 508 615 510
f 510 616 512
f 512 617 514
f 514 618 516
f 516 619 518
f 518 620 520
f 520 621 522
f 522 622 524
f 524 623 526
f 526 624 528
f 528 625 530
f 601 600 534
f 600 599 536
f 599 598 538
f 598 597 540
f 597 596 542
f 596 595 544
f 595 594 546
f 594 593 548
f 593 592 550
f 592 591 552
f 591 590 554
f 590 589 556
f 589 588 558
f 588 587 560
f 587 586 562
f 586 585 564
f 585 584 566
f 584 583 568
f 583 582 570
f 582 581 572
f 486 488 605
f 605 488 579
f 626 627 628
f 626 629 627
f 626 630 629
f 629 630 631
f 631 630 632
f 633 632 634
f 635 634 636
f 637 636 638
f 639 638 640
f 641 640 642
f 643 642 644
f 645 643 644
f 631 632 633
f 633 634 635
f 635 636 637
f 637 638 639
f 639 640 641
f 641 642 643
f 627 646 628
f 628 646 647
f 647 646 648
f 649 648 650
f 651 650 652
f 653 652 654
f 655 654 656
f 657 656 658
f 659 658 660
f 661 660 662
f 663 662 664
f 647 648 649
f 649 650 651
f 651 652 653
f 653 654 655
f 655 656 657
f 657 658 659
f 659 660 661
f 661 662 663
f 665 666 667
f 667 666 668
f 669 666 670
f 671 670 672
f 673 671 672
f 673 674 671
f 673 675 674
f 674 675 676
f 677 676 678
f 677 674 676
f 677 679 674
f 674 679 671
f 671 679 669
f 670 671 669
f 666 665 670
f 670 665 672
f 675 680 676
f 676 680 681
f 678 681 682
f 678 676 681
f 680 683 681
f 681 683 684
f 682 684 685
f 682 681 684
f 683 686 684
f 684 686 687
f 685 687 688
f 685 684 687
f 686 689 687
f 687 689 690
f 688 690 691
f 688 687 690
f 689 692 690
f 690 692 693
f 691 693 694
f 691 690 693
f 692 695 693
f 693 695 696
f 694 696 697
f 694 693 696
f 695 698 696
f 696 698 699
f 697 699 700
f 697 696 699
f 698 701 699
f 699 701 702
f 700 702 703
f 700 699 702
f 701 704 702
f 702 704 705
f 703 705 706
f 703 702 705
f 704 707 705
f 705 707 708
f 706 708 709
f 706 705 708
f 707 710 708
f 708 710 711
f 709 711 712
f 709 708 711
f 710 713 711
f 711 713 712
f 712 713 714
f 714 713 715
f 162 222 232
f 162 161 222
f 162 129 161
f 162 137 129
f 162 164 137
f 137 138 129
f 129 10 161
f 161 10 9
f 8 5 222
f 222 5 716
f 717 222 716
f 717 718 222
f 222 718 719
f 720 222 719
f 720 721 222
f 222 721 722
f 232 722 723
f 724 232 723
f 724 725 232
f 232 725 726
f 727 232 726
f 727 728 232
f 232 728 729
f 251 729 730
f 731 251 730
f 731 714 251
f 731 732 714
f 714 732 733
f 734 714 733
f 734 735 714
f 714 735 736
f 737 714 736
f 737 738 714
f 714 738 739
f 740 714 739
f 740 741 714
f 714 741 742
f 743 714 742
f 743 712 714
f 743 744 712
f 712 744 745
f 746 712 745
f 746 709 712
f 746 747 709
f 709 747 706
f 706 747 748
f 703 748 749
f 700 749 750
f 697 750 751
f 694 751 752
f 691 752 753
f 688 753 754
f 685 754 755
f 682 755 756
f 678 756 757
f 677 757 758
f 679 758 759
f 669 759 760
f 666 760 761
f 762 666 761
f 762 668 666
f 762 763 668
f 668 763 764
f 765 668 764
f 765 766 668
f 668 766 767
f 768 668 767
f 768 769 668
f 768 5 769
f 768 770 5
f 5 770 771
f 772 5 771
f 772 716 5
f 769 773 668
f 668 773 774
f 775 668 774
f 666 669 760
f 669 679 759
f 679 677 758
f 677 678 757
f 678 682 756
f 682 685 755
f 685 688 754
f 688 691 753
f 691 694 752
f 694 697 751
f 697 700 750
f 700 703 749
f 703 706 748
f 776 777 714
f 776 778 777
f 777 778 779
f 780 777 779
f 780 781 777
f 777 781 782
f 777 783 714
f 714 783 251
f 251 783 784
f 785 251 784
f 785 786 251
f 251 786 787
f 788 251 787
f 788 789 251
f 251 789 790
f 252 251 790
f 783 791 792
f 793 783 792
f 793 794 783
f 783 794 795
f 796 783 795
f 796 797 783
f 783 797 784
f 251 232 729
f 222 722 232
f 783 798 799
f 800 799 801
f 791 801 802
f 792 802 803
f 793 803 804
f 794 804 805
f 795 805 806
f 796 806 807
f 797 807 808
f 784 808 809
f 785 809 810
f 786 810 811
f 787 811 812
f 788 812 813
f 789 813 814
f 790 814 815
f 790 789 814
f 816 801 817
f 816 802 801
f 816 818 802
f 802 818 803
f 803 818 819
f 804 819 820
f 805 820 821
f 806 821 822
f 807 822 823
f 808 823 824
f 809 824 825
f 810 825 826
f 811 826 827
f 812 827 828
f 813 828 829
f 814 829 815
f 814 813 829
f 803 819 804
f 804 820 805
f 805 821 806
f 806 822 807
f 807 823 808
f 808 824 809
f 809 825 810
f 810 826 811
f 811 827 812
f 812 828 813
f 789 788 813
f 788 787 812
f 787 786 811
f 786 785 810
f 785 784 809
f 784 797 808
f 797 796 807
f 796 795 806
f 795 794 805
f 794 793 804
f 793 792 803
f 792 791 802
f 791 800 801
f 800 783 799
f 817 801 799
f 798 817 799
f 253 830 212
f 253 831 830
f 253 715 831
f 253 798 715
f 253 823 798
f 253 824 823
f 253 825 824
f 253 826 825
f 253 827 826
f 253 828 827
f 253 829 828
f 253 815 829
f 253 254 815
f 823 822 798
f 798 822 821
f 820 798 821
f 820 819 798
f 798 819 818
f 816 798 818
f 798 832 715
f 715 832 833
f 833 832 834
f 834 832 835
f 835 832 836
f 836 832 837
f 837 832 838
f 713 839 715
f 713 840 839
f 713 841 840
f 713 842 841
f 713 843 842
f 713 844 843
f 713 845 844
f 713 710 845
f 845 710 846
f 846 710 707
f 847 707 704
f 848 704 701
f 849 701 698
f 695 849 698
f 695 850 849
f 695 692 850
f 850 692 851
f 851 692 689
f 852 689 686
f 683 852 686
f 683 853 852
f 683 680 853
f 853 680 675
f 854 675 673
f 672 854 673
f 672 855 854
f 672 665 855
f 855 665 856
f 856 665 857
f 857 665 858
f 858 665 667
f 859 667 860
f 859 858 667
f 846 707 847
f 847 704 848
f 848 701 849
f 851 689 852
f 853 675 854
f 861 667 862
f 861 863 667
f 667 863 864
f 6 667 864
f 6 860 667
f 6 865 860
f 6 866 865
f 6 867 866
f 6 868 867
f 6 187 868
f 6 7 187
f 141 212 187
f 141 186 212
f 141 11 186
f 141 12 11
f 11 131 186
f 186 131 175
f 869 870 187
f 871 187 872
f 871 869 187
f 839 873 715
f 715 873 874
f 875 715 874
f 875 876 715
f 715 876 831
f 830 877 212
f 212 877 878
f 879 212 878
f 879 880 212
f 212 880 881
f 187 881 872
f 187 212 881
f 870 868 187
f 882 883 777
f 882 884 883
f 882 782 884
f 884 782 885
f 886 885 887
f 888 887 889
f 836 889 835
f 836 888 889
f 836 837 888
f 888 837 890
f 886 890 891
f 884 891 883
f 884 886 891
f 884 885 886
f 782 781 885
f 885 781 892
f 887 892 893
f 889 893 894
f 835 894 834
f 835 889 894
f 781 780 892
f 892 780 895
f 893 895 896
f 894 896 897
f 834 897 833
f 834 894 897
f 780 779 895
f 895 779 898
f 896 898 899
f 897 899 900
f 833 900 715
f 833 897 900
f 779 778 898
f 898 778 901
f 899 901 902
f 900 902 715
f 900 899 902
f 778 776 901
f 901 776 903
f 902 903 714
f 715 902 714
f 776 714 903
f 837 838 890
f 890 838 904
f 891 904 905
f 883 905 777
f 883 891 905
f 838 906 904
f 904 906 907
f 905 907 832
f 777 905 832
f 906 832 907
f 904 907 905
f 890 904 891
f 888 890 886
f 887 888 886
f 892 887 885
f 895 893 892
f 893 889 887
f 898 896 895
f 896 894 893
f 901 899 898
f 899 897 896
f 903 902 901
f 777 832 783
f 783 832 798
f 815 201 790
f 815 254 201
f 201 231 790
f 790 231 252
f 864 769 6
f 6 769 5
f 863 908 864
f 863 909 908
f 863 861 909
f 909 861 910
f 911 910 912
f 913 912 914
f 915 914 668
f 916 668 917
f 918 917 919
f 920 919 921
f 922 921 923
f 924 923 925
f 769 925 773
f 769 924 925
f 769 926 924
f 769 864 926
f 926 864 927
f 928 927 929
f 930 929 931
f 932 931 913
f 915 913 914
f 915 932 913
f 915 916 932
f 915 668 916
f 861 862 910
f 910 862 933
f 912 933 934
f 914 934 667
f 668 914 667
f 862 935 933
f 933 935 936
f 934 936 667
f 934 933 936
f 935 937 936
f 936 937 667
f 668 938 917
f 917 938 919
f 919 938 939
f 921 939 775
f 923 775 774
f 925 774 773
f 925 923 774
f 919 939 921
f 921 775 923
f 927 864 940
f 929 940 941
f 931 941 911
f 913 911 912
f 913 931 911
f 940 908 941
f 940 864 908
f 927 940 929
f 927 928 926
f 926 928 922
f 924 922 923
f 924 926 922
f 911 941 909
f 910 911 909
f 931 929 941
f 908 909 941
f 929 930 928
f 928 930 920
f 922 920 921
f 922 928 920
f 912 910 933
f 931 932 930
f 930 932 918
f 920 918 919
f 920 930 918
f 914 912 934
f 917 918 916
f 916 918 932
f 263 868 261
f 263 867 868
f 263 265 867
f 867 265 866
f 866 265 267
f 865 267 269
f 860 269 272
f 859 272 274
f 858 274 276
f 857 276 278
f 856 278 280
f 855 280 282
f 854 282 285
f 853 285 287
f 852 287 289
f 851 289 291
f 850 291 293
f 849 293 295
f 848 295 298
f 847 298 300
f 846 300 302
f 845 302 304
f 844 304 306
f 843 306 308
f 842 308 311
f 841 311 313
f 840 313 315
f 839 315 317
f 873 317 319
f 874 319 321
f 875 321 324
f 876 324 326
f 831 326 328
f 830 328 330
f 877 330 332
f 878 332 334
f 879 334 337
f 880 337 339
f 881 339 341
f 872 341 343
f 871 343 256
f 869 256 258
f 870 258 261
f 868 870 261
f 866 267 865
f 865 269 860
f 860 272 859
f 859 274 858
f 858 276 857
f 857 278 856
f 856 280 855
f 855 282 854
f 854 285 853
f 853 287 852
f 852 289 851
f 851 291 850
f 850 293 849
f 849 295 848
f 848 298 847
f 847 300 846
f 846 302 845
f 845 304 844
f 844 306 843
f 843 308 842
f 842 311 841
f 841 313 840
f 840 315 839
f 839 317 873
f 873 319 874
f 874 321 875
f 875 324 876
f 876 326 831
f 831 328 830
f 830 330 877
f 877 332 878
f 878 334 879
f 879 337 880
f 880 339 881
f 881 341 872
f 872 343 871
f 871 256 869
f 869 258 870
f 942 747 943
f 942 748 747
f 942 944 748
f 748 944 749
f 749 944 945
f 750 945 946
f 751 946 947
f 752 947 948
f 753 948 949
f 754 949 950
f 755 950 951
f 756 951 952
f 757 952 953
f 758 953 954
f 759 954 955
f 760 955 956
f 761 956 957
f 762 957 958
f 763 958 959
f 764 959 960
f 765 960 961
f 766 961 962
f 767 962 963
f 768 963 964
f 770 964 965
f 771 965 966
f 772 966 967
f 716 967 968
f 717 968 969
f 718 969 970
f 719 970 971
f 720 971 972
f 721 972 973
f 722 973 974
f 723 974 975
f 724 975 976
f 725 976 977
f 726 977 978
f 727 978 979
f 728 979 980
f 729 980 981
f 730 981 982
f 731 982 983
f 732 983 984
f 733 984 985
f 734 985 986
f 735 986 987
f 736 987 988
f 737 988 989
f 738 989 990
f 739 990 991
f 740 991 992
f 741 992 993
f 742 993 994
f 743 994 995
f 744 995 996
f 745 996 997
f 746 997 943
f 747 746 943
f 749 945 750
f 750 946 751
f 751 947 752
f 752 948 753
f 753 949 754
f 754 950 755
f 755 951 756
f 756 952 757
f 757 953 758
f 758 954 759
f 759 955 760
f 760 956 761
f 761 957 762
f 762 958 763
f 763 959 764
f 764 960 765
f 765 961 766
f 766 962 767
f 767 963 768
f 768 964 770
f 770 965 771
f 771 966 772
f 772 967 716
f 716 968 717
f 717 969 718
f 718 970 719
f 719 971 720
f 720 972 721
f 721 973 722
f 722 974 723
f 723 975 724
f 724 976 725
f 725 977 726
f 726 978 727
f 727 979 728
f 728 980 729
f 729 981 730
f 730 982 731
f 731 983 732
f 732 984 733
f 733 985 734
f 734 986 735
f 735 987 736
f 736 988 737
f 737 989 738
f 738 990 739
f 739 991 740
f 740 992 741
f 741 993 742
f 742 994 743
f 743 995 744
f 744 996 745
f 745 997 746
f 942 943 998
f 999 942 998
f 999 944 942
f 999 1000 944
f 944 1000 945
f 945 1000 1001
f 946 1001 1002
f 947 1002 1003
f 948 1003 949
f 948 947 1003
f 996 1004 997
f 996 1005 1004
f 996 995 1005
f 1005 995 1006
f 1006 995 994
f 1007 994 993
f 1008 993 992
f 991 1008 992
f 991 1009 1008
f 991 990 1009
f 1009 990 1010
f 1010 990 989
f 1011 989 988
f 1012 988 987
f 986 1012 987
f 986 1013 1012
f 986 985 1013
f 1013 985 1014
f 1014 985 984
f 1015 984 983
f 1016 983 982
f 1017 982 981
f 980 1017 981
f 980 1018 1017
f 980 979 1018
f 1018 979 1019
f 1019 979 978
f 1020 978 977
f 1021 977 976
f 975 1021 976
f 975 1022 1021
f 975 974 1022
f 1022 974 1023
f 1023 974 973
f 1024 973 972
f 1025 972 971
f 1026 971 970
f 969 1026 970
f 969 1027 1026
f 969 968 1027
f 1027 968 1028
f 1028 968 967
f 1029 967 966
f 1030 966 965
f 1031 965 964
f 963 1031 964
f 963 1032 1031
f 963 962 1032
f 1032 962 1033
f 1033 962 961
f 1034 961 960
f 1035 960 959
f 958 1035 959
f 958 1036 1035
f 958 957 1036
f 1036 957 1037
f 1037 957 956
f 1038 956 955
f 1039 955 954
f 1040 954 953
f 952 1040 953
f 952 1041 1040
f 952 951 1041
f 1041 951 1042
f 1042 951 950
f 1043 950 949
f 1003 1043 949
f 1006 994 1007
f 1007 993 1008
f 1010 989 1011
f 1011 988 1012
f 1014 984 1015
f 1015 983 1016
f 1016 982 1017
f 1019 978 1020
f 1020 977 1021
f 1023 973 1024
f 1024 972 1025
f 1025 971 1026
f 1028 967 1029
f 1029 966 1030
f 1030 965 1031
f 1033 961 1034
f 1034 960 1035
f 1037 956 1038
f 1038 955 1039
f 1039 954 1040
f 1042 950 1043
f 947 946 1002
f 946 945 1001
f 1004 998 997
f 997 998 943
f 1044 999 1045
f 1044 1000 999
f 1044 1046 1000
f 1000 1046 1001
f 1001 1046 1047
f 1002 1047 1048
f 1003 1048 1049
f 1043 1049 1050
f 1042 1050 1051
f 1041 1051 1052
f 1040 1052 1053
f 1039 1053 1054
f 1038 1054 1055
f 1037 1055 1056
f 1036 1056 1057
f 1035 1057 1058
f 1034 1058 1059
f 1033 1059 1060
f 1032 1060 1061
f 1031 1061 1062
f 1030 1062 1063
f 1029 1063 1064
f 1028 1064 1065
f 1027 1065 1066
f 1026 1066 1067
f 1025 1067 1068
f 1024 1068 1069
f 1023 1069 1070
f 1022 1070 1071
f 1021 1071 1072
f 1020 1072 1073
f 1019 1073 1074
f 1018 1074 1075
f 1017 1075 1076
f 1016 1076 1077
f 1015 1077 1078
f 1014 1078 1079
f 1013 1079 1080
f 1012 1080 1081
f 1011 1081 1082
f 1010 1082 1083
f 1009 1083 1084
f 1008 1084 1085
f 1007 1085 1086
f 1006 1086 1087
f 1005 1087 1088
f 1004 1088 1089
f 998 1089 1045
f 999 998 1045
f 1001 1047 1002
f 1002 1048 1003
f 1003 1049 1043
f 1043 1050 1042
f 1042 1051 1041
f 1041 1052 1040
f 1040 1053 1039
f 1039 1054 1038
f 1038 1055 1037
f 1037 1056 1036
f 1036 1057 1035
f 1035 1058 1034
f 1034 1059 1033
f 1033 1060 1032
f 1032 1061 1031
f 1031 1062 1030
f 1030 1063 1029
f 1029 1064 1028
f 1028 1065 1027
f 1027 1066 1026
f 1026 1067 1025
f 1025 1068 1024
f 1024 1069 1023
f 1023 1070 1022
f 1022 1071 1021
f 1021 1072 1020
f 1020 1073 1019
f 1019 1074 1018
f 1018 1075 1017
f 1017 1076 1016
f 1016 1077 1015
f 1015 1078 1014
f 1014 1079 1013
f 1013 1080 1012
f 1012 1081 1011
f 1011 1082 1010
f 1010 1083 1009
f 1009 1084 1008
f 1008 1085 1007
f 1007 1086 1006
f 1006 1087 1005
f 1005 1088 1004
f 1004 1089 998
f 1044 1045 1090
f 1091 1044 1090
f 1091 1046 1044
f 1091 1092 1046
f 1046 1092 1047
f 1047 1092 1093
f 1048 1093 1094
f 1049 1094 1095
f 1050 1095 1096
f 1051 1096 1097
f 1052 1097 1098
f 1053 1098 1054
f 1053 1052 1098
f 1088 1099 1089
f 1088 1100 1099
f 1088 1087 1100
f 1100 1087 1101
f 1101 1087 1086
f 1102 1086 1085
f 1103 1085 1084
f 1104 1084 1083
f 1105 1083 1082
f 1106 1082 1081
f 1080 1106 1081
f 1080 1107 1106
f 1080 1079 1107
f 1107 1079 1108
f 1108 1079 1078
f 1109 1078 1077
f 1110 1077 1076
f 1111 1076 1075
f 1112 1075 1074
f 1113 1074 1073
f 1114 1073 1072
f 1071 1114 1072
f 1071 1115 1114
f 1071 1070 1115
f 1115 1070 1116
f 1116 1070 1069
f 1117 1069 1068
f 1118 1068 1067
f 1119 1067 1066
f 1120 1066 1065
f 1121 1065 1064
f 1122 1064 1063
f 1123 1063 1062
f 1061 1123 1062
f 1061 1124 1123
f 1061 1060 1124
f 1124 1060 1125
f 1125 1060 1059
f 1126 1059 1058
f 1127 1058 1057
f 1128 1057 1056
f 1129 1056 1055
f 1130 1055 1054
f 1098 1130 1054
f 1101 1086 1102
f 1102 1085 1103
f 1103 1084 1104
f 1104 1083 1105
f 1105 1082 1106
f 1108 1078 1109
f 1109 1077 1110
f 1110 1076 1111
f 1111 1075 1112
f 1112 1074 1113
f 1113 1073 1114
f 1116 1069 1117
f 1117 1068 1118
f 1118 1067 1119
f 1119 1066 1120
f 1120 1065 1121
f 1121 1064 1122
f 1122 1063 1123
f 1125 1059 1126
f 1126 1058 1127
f 1127 1057 1128
f 1128 1056 1129
f 1129 1055 1130
f 1052 1051 1097
f 1051 1050 1096
f 1050 1049 1095
f 1049 1048 1094
f 1048 1047 1093
f 1099 1090 1089
f 1089 1090 1045
f 647 1091 628
f 647 1092 1091
f 647 649 1092
f 1092 649 1093
f 1093 649 651
f 1094 651 653
f 1095 653 655
f 1096 655 657
f 1097 657 659
f 1098 659 661
f 1130 661 663
f 1129 663 1131
f 1128 1131 664
f 1127 664 662
f 1126 662 660
f 1125 660 658
f 1124 658 656
f 1123 656 654
f 1122 654 652
f 1121 652 650
f 1120 650 648
f 1119 648 646
f 1118 646 627
f 1117 627 629
f 1116 629 631
f 1115 631 633
f 1114 633 635
f 1113 635 637
f 1112 637 639
f 1111 639 641
f 1110 641 643
f 1109 643 645
f 1108 645 1132
f 1107 1132 644
f 1106 644 642
f 1105 642 640
f 1104 640 638
f 1103 638 636
f 1102 636 634
f 1101 634 632
f 1100 632 630
f 1099 630 626
f 1090 626 628
f 1091 1090 628
f 1093 651 1094
f 1094 653 1095
f 1095 655 1096
f 1096 657 1097
f 1097 659 1098
f 1098 661 1130
f 1130 663 1129
f 1129 1131 1128
f 1128 664 1127
f 1127 662 1126
f 1126 660 1125
f 1125 658 1124
f 1124 656 1123
f 1123 654 1122
f 1122 652 1121
f 1121 650 1120
f 1120 648 1119
f 1119 646 1118
f 1118 627 1117
f 1117 629 1116
f 1116 631 1115
f 1115 633 1114
f 1114 635 1113
f 1113 637 1112
f 1112 639 1111
f 1111 641 1110
f 1110 643 1109
f 1109 645 1108
f 1108 1132 1107
f 1107 644 1106
f 1106 642 1105
f 1105 640 1104
f 1104 638 1103
f 1103 636 1102
f 1102 634 1101
f 1101 632 1100
f 1100 630 1099
f 1099 626 1090

