# https://github.com/mikedh/trimesh
v 0.00781296 -0.00171976 -0.00016711
v 0.00800000 0.00000000 0.00033289
v 0.00800000 0.00000000 -0.00016711
v 0.00781296 0.00171976 0.00033289
v 0.00781296 0.00171976 -0.00016711
v 0.00726060 0.00335911 0.00033289
v 0.00726060 0.00335911 -0.00016711
v 0.00636874 0.00484139 0.00033289
v 0.00636874 0.00484139 -0.00016711
v 0.00517909 0.00609730 0.00033289
v 0.00517909 0.00609730 -0.00016711
v 0.00374727 0.00706810 0.00033289
v 0.00374727 0.00706810 -0.00016711
v 0.00214023 0.00770840 0.00033289
v 0.00214023 0.00770840 -0.00016711
v 0.00043311 0.00798827 0.00033289
v 0.00043311 0.00798827 -0.00016711
v -0.00129426 0.00789461 0.00033289
v -0.00129426 0.00789461 -0.00016711
v -0.00296111 0.00743181 0.00033289
v -0.00296111 0.00743181 -0.00016711
v -0.00448950 0.00662151 0.00033289
v -0.00448950 0.00662151 -0.00016711
v -0.00580796 0.00550160 0.00033289
v -0.00580796 0.00550160 -0.00016711
v -0.00685486 0.00412443 0.00033289
v -0.00685486 0.00412443 -0.00016711
v -0.00758123 0.00255441 0.00033289
v -0.00758123 0.00255441 -0.00016711
v -0.00795310 0.00086495 0.00033289
v -0.00795310 0.00086495 -0.00016711
v -0.00795310 -0.00086495 0.00033289
v -0.00795310 -0.00086495 -0.00016711
v -0.00758123 -0.00255441 0.00033289
v -0.00758123 -0.00255441 -0.00016711
v -0.00685486 -0.00412443 0.00033289
v -0.00685486 -0.00412443 -0.00016711
v -0.00580796 -0.00550160 0.00033289
v -0.00580796 -0.00550160 -0.00016711
v -0.00448950 -0.00662151 0.00033289
v -0.00448950 -0.00662151 -0.00016711
v -0.00296111 -0.00743181 0.00033289
v -0.00296111 -0.00743181 -0.00016711
v -0.00129426 -0.00789461 0.00033289
v -0.00129426 -0.00789461 -0.00016711
v 0.00043311 -0.00798827 0.00033289
v 0.00043311 -0.00798827 -0.00016711
v 0.00214023 -0.00770840 0.00033289
v 0.00214023 -0.00770840 -0.00016711
v 0.00374727 -0.00706810 0.00033289
v 0.00374727 -0.00706810 -0.00016711
v 0.00517909 -0.00609730 0.00033289
v 0.00517909 -0.00609730 -0.00016711
v 0.00636874 -0.00484139 0.00033289
v 0.00636874 -0.00484139 -0.00016711
v 0.00726060 -0.00335911 0.00033289
v 0.00726060 -0.00335911 -0.00016711
v 0.00781296 -0.00171976 0.00033289
v 0.00930000 -0.01145000 0.00413289
v 0.00930000 -0.01345000 0.00413289
v 0.00980000 -0.01345000 0.00413289
v 0.00980000 0.01345000 0.00413289
v 0.00930000 0.01345000 0.00413289
v 0.00930000 0.01125000 0.00413289
v -0.00980000 0.01125000 0.00413289
v -0.00980000 -0.01145000 0.00413289
v -0.00229813 -0.01075000 0.01360450
v -0.00281908 -0.01075000 0.01450680
v -0.00300000 -0.01075000 0.01553290
v 0.00052095 -0.01075000 0.01848730
v 0.00052095 -0.01075000 0.01257850
v -0.00052095 -0.01075000 0.01848730
v -0.00052095 -0.01075000 0.01257850
v -0.00150000 -0.01075000 0.01293480
v -0.00281908 -0.01075000 0.01655890
v -0.00229813 -0.01075000 0.01746120
v 0.00150000 -0.01075000 0.01813100
v 0.00229813 -0.01075000 0.01360450
v 0.00150000 -0.01075000 0.01293480
v -0.00150000 -0.01075000 0.01813100
v 0.00300000 -0.01075000 0.01553290
v 0.00281908 -0.01075000 0.01450680
v 0.00281908 -0.01075000 0.01655890
v 0.00229813 -0.01075000 0.01746120
v 0.00980000 -0.01345000 -0.00016711
v 0.00905000 -0.01345000 0.00419987
v -0.00980000 -0.01345000 -0.00016711
v 0.00886699 -0.01345000 0.00438289
v 0.00880000 -0.01345000 0.00463289
v 0.00880000 -0.01345000 0.00783289
v -0.00980000 -0.01345000 0.01883290
v -0.00680000 -0.01345000 0.02183290
v -0.00520000 -0.01345000 0.02183290
v 0.00862764 -0.01345000 0.01002300
v 0.00811479 -0.01345000 0.01215910
v 0.00727409 -0.01345000 0.01418880
v 0.00302899 -0.01345000 0.01915910
v 0.00115587 -0.01345000 0.02030700
v -0.00772705 -0.01345000 0.02168610
v -0.00856336 -0.01345000 0.02125990
v -0.00965317 -0.01345000 0.01975990
v -0.00922705 -0.01345000 0.02059620
v -0.00087376 -0.01345000 0.02114770
v -0.00300992 -0.01345000 0.02166050
v 0.00612624 -0.01345000 0.01606190
v 0.00469950 -0.01345000 0.01773240
v 0.00905000 -0.01145000 0.00419987
v 0.00886699 -0.01145000 0.00438289
v 0.00880000 -0.01145000 0.00463289
v -0.00772705 -0.01145000 0.02168610
v -0.00229813 -0.01145000 0.01746120
v -0.00856336 -0.01145000 0.02125990
v -0.00281908 -0.01145000 0.01655890
v -0.00922705 -0.01145000 0.02059620
v 0.00300000 -0.01145000 0.01553290
v 0.00281908 -0.01145000 0.01655890
v 0.00469950 -0.01145000 0.01773240
v -0.00281908 -0.01145000 0.01450680
v -0.00229813 -0.01145000 0.01360450
v 0.00302899 -0.01145000 0.01915910
v -0.00300000 -0.01145000 0.01553290
v -0.00980000 -0.01145000 0.01883290
v -0.00965317 -0.01145000 0.01975990
v -0.00680000 -0.01145000 0.02183290
v -0.00520000 -0.01145000 0.02183290
v -0.00150000 -0.01145000 0.01813100
v -0.00300992 -0.01145000 0.02166050
v -0.00052095 -0.01145000 0.01848730
v -0.00087376 -0.01145000 0.02114770
v 0.00052095 -0.01145000 0.01848730
v 0.00115587 -0.01145000 0.02030700
v 0.00150000 -0.01145000 0.01813100
v 0.00229813 -0.01145000 0.01746120
v -0.00150000 -0.01145000 0.01293480
v -0.00052095 -0.01145000 0.01257850
v 0.00150000 -0.01145000 0.01293480
v 0.00229813 -0.01145000 0.01360450
v 0.00880000 -0.01145000 0.00783289
v 0.00052095 -0.01145000 0.01257850
v 0.00612624 -0.01145000 0.01606190
v 0.00727409 -0.01145000 0.01418880
v 0.00281908 -0.01145000 0.01450680
v 0.00811479 -0.01145000 0.01215910
v 0.00862764 -0.01145000 0.01002300
v 0.00361401 0.01045000 0.01670720
v 0.00307426 0.01045000 0.01776650
v -0.00223358 0.01045000 0.01245860
v 0.00223358 0.01045000 0.01860720
v 0.00117426 0.01045000 0.01914690
v 0.00000000 0.01045000 0.01933290
v -0.00117426 0.01045000 0.01914690
v -0.00223358 0.01045000 0.01860720
v -0.00380000 0.01045000 0.01553290
v -0.00307426 0.01045000 0.01329930
v -0.00361401 0.01045000 0.01435860
v -0.00117426 0.01045000 0.01191890
v 0.00000000 0.01045000 0.01173290
v 0.00117426 0.01045000 0.01191890
v 0.00223358 0.01045000 0.01245860
v 0.00307426 0.01045000 0.01329930
v 0.00380000 0.01045000 0.01553290
v 0.00361401 0.01045000 0.01435860
v -0.00307426 0.01045000 0.01776650
v -0.00361401 0.01045000 0.01670720
v 0.00980000 0.01345000 -0.00016711
v 0.00905000 0.01345000 0.00419987
v 0.00886699 0.01345000 0.00438289
v -0.00980000 0.01345000 -0.00016711
v 0.00880000 0.01345000 0.00463289
v 0.00115587 0.01345000 0.02030700
v 0.00302899 0.01345000 0.01915910
v 0.00727409 0.01345000 0.01418880
v 0.00811479 0.01345000 0.01215910
v -0.00087376 0.01345000 0.02114770
v 0.00862764 0.01345000 0.01002300
v 0.00880000 0.01345000 0.00783289
v -0.00856336 0.01345000 0.02125990
v -0.00772705 0.01345000 0.02168610
v -0.00922705 0.01345000 0.02059620
v -0.00680000 0.01345000 0.02183290
v -0.00965317 0.01345000 0.01975990
v 0.00469950 0.01345000 0.01773240
v 0.00612624 0.01345000 0.01606190
v -0.00980000 0.01345000 0.01883290
v -0.00520000 0.01345000 0.02183290
v -0.00300992 0.01345000 0.02166050
v 0.00905000 0.01125000 0.00419987
v 0.00886699 0.01125000 0.00438289
v 0.00880000 0.01125000 0.00463289
v 0.00361401 0.01125000 0.01435860
v 0.00307426 0.01125000 0.01329930
v -0.00117426 0.01125000 0.01191890
v -0.00223358 0.01125000 0.01245860
v -0.00965317 0.01125000 0.01975990
v -0.00980000 0.01125000 0.01883290
v -0.00361401 0.01125000 0.01670720
v 0.00223358 0.01125000 0.01245860
v 0.00117426 0.01125000 0.01191890
v 0.00000000 0.01125000 0.01173290
v 0.00880000 0.01125000 0.00783289
v 0.00862764 0.01125000 0.01002300
v -0.00307426 0.01125000 0.01329930
v -0.00361401 0.01125000 0.01435860
v -0.00380000 0.01125000 0.01553290
v -0.00680000 0.01125000 0.02183290
v -0.00772705 0.01125000 0.02168610
v -0.00307426 0.01125000 0.01776650
v -0.00856336 0.01125000 0.02125990
v -0.00922705 0.01125000 0.02059620
v 0.00811479 0.01125000 0.01215910
v 0.00727409 0.01125000 0.01418880
v 0.00612624 0.01125000 0.01606190
v -0.00520000 0.01125000 0.02183290
v -0.00223358 0.01125000 0.01860720
v -0.00300992 0.01125000 0.02166050
v -0.00117426 0.01125000 0.01914690
v -0.00087376 0.01125000 0.02114770
v 0.00000000 0.01125000 0.01933290
v 0.00115587 0.01125000 0.02030700
v 0.00117426 0.01125000 0.01914690
v 0.00302899 0.01125000 0.01915910
v 0.00223358 0.01125000 0.01860720
v 0.00469950 0.01125000 0.01773240
v 0.00307426 0.01125000 0.01776650
v 0.00361401 0.01125000 0.01670720
v 0.00380000 0.01125000 0.01553290
f 1 2 3
f 3 2 4
f 3 4 5
f 5 4 6
f 5 6 7
f 7 6 8
f 7 8 9
f 9 8 10
f 9 10 11
f 11 10 12
f 11 12 13
f 13 12 14
f 13 14 15
f 15 14 16
f 15 16 17
f 17 16 18
f 17 18 19
f 19 18 20
f 19 20 21
f 21 20 22
f 21 22 23
f 23 22 24
f 23 24 25
f 25 24 26
f 25 26 27
f 27 26 28
f 27 28 29
f 29 28 30
f 29 30 31
f 31 30 32
f 31 32 33
f 33 32 34
f 33 34 35
f 35 34 36
f 35 36 37
f 37 36 38
f 37 38 39
f 39 38 40
f 39 40 41
f 41 40 42
f 41 42 43
f 43 42 44
f 43 44 45
f 45 44 46
f 45 46 47
f 47 46 48
f 47 48 49
f 49 48 50
f 49 50 51
f 51 50 52
f 51 52 53
f 53 52 54
f 53 54 55
f 55 54 56
f 55 56 57
f 57 56 58
f 57 58 1
f 1 58 2
f 44 42 16
f 44 16 46
f 46 16 14
f 46 14 12
f 54 52 12
f 42 40 16
f 16 40 38
f 16 38 36
f 36 34 16
f 16 34 32
f 16 32 30
f 10 8 58
f 58 8 6
f 58 6 2
f 2 6 4
f 10 58 12
f 12 58 56
f 12 56 54
f 52 50 12
f 12 50 48
f 12 48 46
f 30 28 16
f 16 28 26
f 16 26 24
f 24 22 16
f 16 22 20
f 16 20 18
f 59 60 61
f 62 63 64
f 65 66 64
f 64 66 59
f 64 59 62
f 62 59 61
f 67 68 69
f 70 71 72
f 72 71 73
f 72 73 74
f 69 75 76
f 70 77 71
f 71 77 78
f 71 78 79
f 74 67 72
f 72 67 69
f 72 69 80
f 80 69 76
f 81 82 83
f 83 82 78
f 83 78 84
f 84 78 77
f 61 60 85
f 85 60 86
f 85 86 87
f 86 88 87
f 87 88 89
f 87 89 90
f 91 87 92
f 92 87 93
f 90 94 87
f 87 94 95
f 87 95 96
f 87 97 98
f 92 99 91
f 91 99 100
f 91 100 101
f 101 100 102
f 98 103 87
f 87 103 104
f 87 104 93
f 96 105 87
f 87 105 106
f 87 106 97
f 60 59 107
f 60 107 86
f 86 107 108
f 86 108 88
f 88 108 109
f 88 109 89
f 59 66 107
f 107 66 108
f 110 111 112
f 112 111 113
f 112 113 114
f 115 116 117
f 66 118 119
f 117 116 120
f 118 66 121
f 121 66 122
f 121 122 113
f 113 122 123
f 113 123 114
f 110 124 111
f 111 124 125
f 111 125 126
f 126 125 127
f 126 127 128
f 128 127 129
f 128 129 130
f 130 129 131
f 130 131 132
f 132 131 120
f 132 120 133
f 133 120 116
f 119 134 66
f 66 134 135
f 66 135 108
f 136 137 138
f 135 139 108
f 108 139 136
f 108 136 109
f 109 136 138
f 117 140 115
f 115 140 141
f 115 141 142
f 142 141 143
f 142 143 137
f 137 143 144
f 137 144 138
f 90 138 144
f 90 144 94
f 94 144 143
f 94 143 95
f 95 143 141
f 95 141 96
f 96 141 140
f 96 140 105
f 105 140 117
f 105 117 106
f 106 117 120
f 106 120 97
f 97 120 131
f 97 131 98
f 98 131 129
f 98 129 103
f 103 129 127
f 103 127 104
f 104 127 125
f 104 125 93
f 138 90 109
f 109 90 89
f 92 124 110
f 92 110 99
f 99 110 112
f 99 112 100
f 100 112 114
f 100 114 102
f 102 114 123
f 102 123 101
f 101 123 122
f 101 122 91
f 93 125 92
f 92 125 124
f 142 81 115
f 115 81 83
f 115 83 116
f 116 83 84
f 116 84 133
f 133 84 77
f 133 77 132
f 132 77 70
f 132 70 130
f 130 70 72
f 130 72 128
f 128 72 80
f 128 80 126
f 126 80 76
f 126 76 111
f 111 76 75
f 111 75 113
f 113 75 69
f 113 69 121
f 121 69 68
f 121 68 118
f 118 68 67
f 118 67 119
f 119 67 74
f 119 74 134
f 134 74 73
f 134 73 135
f 135 73 71
f 135 71 139
f 139 71 79
f 139 79 136
f 136 79 78
f 136 78 137
f 137 78 82
f 137 82 142
f 142 82 81
f 145 146 147
f 147 146 148
f 147 148 149
f 149 150 147
f 147 150 151
f 147 151 152
f 147 153 154
f 154 153 155
f 147 156 145
f 145 156 157
f 145 157 158
f 158 159 145
f 145 159 160
f 145 160 161
f 161 160 162
f 152 163 147
f 147 163 164
f 147 164 153
f 62 165 63
f 63 165 166
f 166 165 167
f 167 165 168
f 167 168 169
f 170 171 168
f 168 172 173
f 170 168 174
f 173 175 168
f 168 175 176
f 168 176 169
f 177 178 179
f 179 178 180
f 179 180 181
f 171 182 168
f 168 182 183
f 168 183 172
f 181 180 184
f 184 180 185
f 184 185 168
f 168 185 186
f 168 186 174
f 64 63 166
f 64 166 187
f 187 166 167
f 187 167 188
f 188 167 169
f 188 169 189
f 188 190 191
f 192 193 187
f 187 193 65
f 187 65 64
f 194 195 196
f 191 197 188
f 188 197 198
f 187 198 199
f 187 199 192
f 189 200 201
f 193 202 65
f 65 202 203
f 65 203 195
f 195 203 204
f 195 204 196
f 205 206 207
f 207 206 208
f 207 208 196
f 196 208 209
f 196 209 194
f 201 210 189
f 189 210 211
f 189 211 212
f 205 207 213
f 213 207 214
f 213 214 215
f 215 214 216
f 215 216 217
f 217 216 218
f 217 218 219
f 219 218 220
f 219 220 221
f 221 220 222
f 221 222 223
f 223 222 224
f 223 224 225
f 212 223 189
f 189 223 225
f 189 225 188
f 188 225 226
f 188 226 190
f 205 180 178
f 205 178 206
f 206 178 177
f 206 177 208
f 208 177 179
f 208 179 209
f 209 179 181
f 209 181 194
f 194 181 184
f 194 184 195
f 176 200 169
f 169 200 189
f 200 176 175
f 200 175 201
f 201 175 173
f 201 173 210
f 210 173 172
f 210 172 211
f 211 172 183
f 211 183 212
f 212 183 182
f 212 182 223
f 223 182 171
f 223 171 221
f 221 171 170
f 221 170 219
f 219 170 174
f 219 174 217
f 217 174 186
f 217 186 215
f 215 186 185
f 215 185 213
f 180 205 185
f 185 205 213
f 198 157 199
f 199 157 156
f 199 156 192
f 192 156 147
f 192 147 193
f 193 147 154
f 193 154 202
f 202 154 155
f 202 155 203
f 203 155 153
f 203 153 204
f 204 153 164
f 204 164 196
f 196 164 163
f 196 163 207
f 207 163 152
f 207 152 214
f 214 152 151
f 214 151 216
f 216 151 150
f 216 150 218
f 218 150 149
f 218 149 220
f 220 149 148
f 220 148 222
f 222 148 146
f 222 146 224
f 224 146 145
f 224 145 225
f 225 145 161
f 225 161 226
f 226 161 162
f 226 162 190
f 190 162 160
f 190 160 191
f 191 160 159
f 191 159 197
f 197 159 158
f 197 158 198
f 198 158 157
f 168 31 87
f 87 31 33
f 87 33 35
f 35 37 87
f 87 37 39
f 87 39 41
f 21 23 168
f 168 23 25
f 85 49 51
f 7 9 165
f 165 9 11
f 165 11 13
f 13 15 165
f 165 15 17
f 165 17 168
f 168 17 19
f 168 19 21
f 25 27 168
f 168 27 29
f 168 29 31
f 41 43 87
f 87 43 45
f 87 45 85
f 85 45 47
f 85 47 49
f 51 53 85
f 85 53 55
f 85 55 57
f 57 1 85
f 85 1 3
f 85 3 165
f 165 3 5
f 165 5 7
f 85 165 61
f 61 165 62
f 195 184 65
f 65 184 168
f 65 168 66
f 66 168 87
f 66 87 122
f 122 87 91

