# https://github.com/mikedh/trimesh
v 0.00050000 -0.00086602 0.01570000
v -0.00000000 -0.00100000 0.01140000
v -0.00000000 -0.00100000 0.01570000
v -0.00050000 -0.00086602 0.01140000
v -0.00050000 -0.00086602 0.01570000
v -0.00086602 -0.00050000 0.01140000
v -0.00086602 -0.00050000 0.01570000
v -0.00100000 0.00000000 0.01140000
v -0.00100000 0.00000000 0.01570000
v -0.00086602 0.00050000 0.01140000
v -0.00086602 0.00050000 0.01570000
v -0.00050000 0.00086602 0.01140000
v -0.00050000 0.00086602 0.01570000
v -0.00000000 0.00100000 0.01140000
v -0.00000000 0.00100000 0.01570000
v 0.00050000 0.00086602 0.01140000
v 0.00050000 0.00086602 0.01570000
v 0.00086602 0.00050000 0.01140000
v 0.00086602 0.00050000 0.01570000
v 0.00100000 0.00000000 0.01140000
v 0.00100000 0.00000000 0.01570000
v 0.00086602 -0.00050000 0.01140000
v 0.00086602 -0.00050000 0.01570000
v 0.00050000 -0.00086602 0.01140000
v -0.00980000 -0.01345000 0.01570000
v -0.00980000 0.01345000 0.01570000
v 0.00980000 -0.01345000 0.01570000
v 0.00980000 0.01345000 0.01570000
v 0.00223358 0.01045000 0.00307426
v 0.00117426 0.01045000 0.00361401
v -0.00307426 0.01045000 -0.00223358
v -0.00000000 0.01045000 0.00380000
v -0.00223358 0.01045000 -0.00307426
v -0.00117426 0.01045000 -0.00361401
v -0.00000000 0.01045000 -0.00380000
v 0.00361401 0.01045000 -0.00117426
v 0.00380000 0.01045000 -0.00000000
v 0.00117426 0.01045000 -0.00361401
v 0.00223358 0.01045000 -0.00307426
v 0.00307426 0.01045000 -0.00223358
v 0.00361401 0.01045000 0.00117426
v 0.00307426 0.01045000 0.00223358
v -0.00117426 0.01045000 0.00361401
v -0.00223358 0.01045000 0.00307426
v -0.00307426 0.01045000 0.00223358
v -0.00361401 0.01045000 0.00117426
v -0.00380000 0.01045000 0.00000000
v -0.00361401 0.01045000 -0.00117426
v 0.00380000 0.01125000 -0.00000000
v 0.00361401 0.01125000 -0.00117426
v 0.00569949 0.01125000 -0.00219949
v -0.00922705 0.01125000 -0.00506336
v -0.00856336 0.01125000 -0.00572705
v -0.00307426 0.01125000 -0.00223358
v 0.00402899 0.01125000 -0.00362624
v -0.00980000 0.01125000 -0.00330000
v -0.00361401 0.01125000 -0.00117426
v -0.00380000 0.01125000 0.00000000
v -0.00980000 0.01125000 0.01140000
v -0.00361401 0.01125000 0.00117426
v -0.00307426 0.01125000 0.00223358
v -0.00223358 0.01125000 0.00307426
v 0.00307426 0.01125000 -0.00223358
v 0.00223358 0.01125000 -0.00307426
v 0.00215587 0.01125000 -0.00477409
v 0.00117426 0.01125000 -0.00361401
v 0.00012624 0.01125000 -0.00561479
v -0.00000000 0.01125000 -0.00380000
v -0.00200992 0.01125000 -0.00612764
v -0.00117426 0.01125000 -0.00361401
v -0.00420000 0.01125000 -0.00630000
v -0.00223358 0.01125000 -0.00307426
v -0.00680000 0.01125000 -0.00630000
v -0.00772705 0.01125000 -0.00615317
v -0.00965317 0.01125000 -0.00422705
v -0.00117426 0.01125000 0.00361401
v -0.00000000 0.01125000 0.00380000
v 0.00980000 0.01125000 0.01140000
v 0.00307426 0.01125000 0.00223358
v 0.00980000 0.01125000 0.00770000
v 0.00223358 0.01125000 0.00307426
v 0.00117426 0.01125000 0.00361401
v 0.00712624 0.01125000 -0.00052899
v 0.00827409 0.01125000 0.00134413
v 0.00361401 0.01125000 0.00117426
v 0.00911479 0.01125000 0.00337376
v 0.00962764 0.01125000 0.00550992
v -0.00200992 0.01345000 -0.00612764
v -0.00420000 0.01345000 -0.00630000
v 0.00980000 0.01345000 0.00770000
v -0.00856336 0.01345000 -0.00572705
v -0.00922705 0.01345000 -0.00506336
v -0.00965317 0.01345000 -0.00422705
v 0.00962764 0.01345000 0.00550992
v 0.00911479 0.01345000 0.00337376
v 0.00827409 0.01345000 0.00134413
v 0.00712624 0.01345000 -0.00052899
v 0.00569949 0.01345000 -0.00219949
v 0.00402899 0.01345000 -0.00362624
v -0.00980000 0.01345000 -0.00330000
v -0.00680000 0.01345000 -0.00630000
v -0.00772705 0.01345000 -0.00615317
v 0.00215587 0.01345000 -0.00477409
v 0.00012624 0.01345000 -0.00561479
v 0.00980000 -0.01105000 0.01140000
v -0.00980000 -0.01105000 0.01140000
v 0.00980000 -0.01105000 0.00970000
v -0.00980000 -0.01105000 0.00970000
v 0.00281908 -0.00975000 -0.00102606
v 0.00229813 -0.00975000 -0.00192836
v 0.00150000 -0.00975000 -0.00259808
v 0.00229813 -0.00975000 0.00192836
v -0.00229813 -0.00975000 -0.00192836
v -0.00281908 -0.00975000 -0.00102606
v -0.00300000 -0.00975000 0.00000000
v -0.00281908 -0.00975000 0.00102606
v -0.00229813 -0.00975000 0.00192836
v 0.00300000 -0.00975000 0.00000000
v 0.00281908 -0.00975000 0.00102606
v 0.00052095 -0.00975000 -0.00295442
v -0.00052095 -0.00975000 -0.00295442
v -0.00150000 -0.00975000 -0.00259808
v 0.00052095 -0.00975000 0.00295442
v 0.00150000 -0.00975000 0.00259808
v -0.00052095 -0.00975000 0.00295442
v -0.00150000 -0.00975000 0.00259808
v 0.00980000 -0.01345000 0.00770000
v -0.00420000 -0.01345000 -0.00630000
v -0.00980000 -0.01345000 -0.00330000
v 0.00962764 -0.01345000 0.00550992
v -0.00200992 -0.01345000 -0.00612764
v 0.00012624 -0.01345000 -0.00561479
v 0.00215587 -0.01345000 -0.00477409
v -0.00922705 -0.01345000 -0.00506336
v -0.00856336 -0.01345000 -0.00572705
v -0.00965317 -0.01345000 -0.00422705
v -0.00772705 -0.01345000 -0.00615317
v -0.00680000 -0.01345000 -0.00630000
v 0.00402899 -0.01345000 -0.00362624
v 0.00569949 -0.01345000 -0.00219949
v 0.00712624 -0.01345000 -0.00052899
v 0.00827409 -0.01345000 0.00134413
v 0.00911479 -0.01345000 0.00337376
v 0.00980000 -0.01145000 0.00970000
v 0.00980000 -0.01145000 0.00770000
v 0.00229813 -0.01145000 0.00192836
v 0.00962764 -0.01145000 0.00550992
v 0.00281908 -0.01145000 0.00102606
v 0.00150000 -0.01145000 0.00259808
v 0.00052095 -0.01145000 0.00295442
v -0.00980000 -0.01145000 0.00970000
v -0.00052095 -0.01145000 0.00295442
v -0.00150000 -0.01145000 0.00259808
v -0.00229813 -0.01145000 0.00192836
v -0.00281908 -0.01145000 0.00102606
v -0.00980000 -0.01145000 -0.00330000
v -0.00229813 -0.01145000 -0.00192836
v -0.00772705 -0.01145000 -0.00615317
v -0.00856336 -0.01145000 -0.00572705
v -0.00300000 -0.01145000 0.00000000
v -0.00281908 -0.01145000 -0.00102606
v -0.00965317 -0.01145000 -0.00422705
v -0.00922705 -0.01145000 -0.00506336
v 0.00911479 -0.01145000 0.00337376
v 0.00827409 -0.01145000 0.00134413
v 0.00300000 -0.01145000 0.00000000
v 0.00712624 -0.01145000 -0.00052899
v 0.00281908 -0.01145000 -0.00102606
v 0.00569949 -0.01145000 -0.00219949
v 0.00229813 -0.01145000 -0.00192836
v 0.00402899 -0.01145000 -0.00362624
v 0.00150000 -0.01145000 -0.00259808
v 0.00215587 -0.01145000 -0.00477409
v 0.00052095 -0.01145000 -0.00295442
v 0.00012624 -0.01145000 -0.00561479
v -0.00052095 -0.01145000 -0.00295442
v -0.00200992 -0.01145000 -0.00612764
v -0.00150000 -0.01145000 -0.00259808
v -0.00420000 -0.01145000 -0.00630000
v -0.00680000 -0.01145000 -0.00630000
f 1 2 3
f 3 2 4
f 3 4 5
f 5 4 6
f 5 6 7
f 7 6 8
f 7 8 9
f 9 8 10
f 9 10 11
f 11 10 12
f 11 12 13
f 13 12 14
f 13 14 15
f 15 14 16
f 15 16 17
f 17 16 18
f 17 18 19
f 19 18 20
f 19 20 21
f 21 20 22
f 21 22 23
f 23 22 24
f 23 24 1
f 1 24 2
f 25 5 7
f 25 7 26
f 26 7 9
f 26 9 11
f 27 1 25
f 25 1 3
f 25 3 5
f 11 13 26
f 26 13 15
f 26 15 28
f 28 15 17
f 17 19 28
f 28 19 21
f 28 21 27
f 27 21 23
f 27 23 1
f 29 30 31
f 31 30 32
f 33 34 35
f 36 37 31
f 35 38 33
f 33 38 39
f 33 39 31
f 31 39 40
f 31 40 36
f 37 41 31
f 31 41 42
f 31 42 29
f 32 43 31
f 31 43 44
f 31 44 45
f 45 46 31
f 31 46 47
f 31 47 48
f 49 50 51
f 52 53 54
f 51 50 55
f 56 57 58
f 56 58 59
f 58 60 59
f 59 60 61
f 59 61 62
f 50 63 55
f 55 63 64
f 55 64 65
f 65 64 66
f 65 66 67
f 67 66 68
f 67 68 69
f 69 68 70
f 69 70 71
f 71 70 72
f 71 72 73
f 73 72 54
f 73 54 74
f 74 54 53
f 57 56 54
f 54 56 75
f 54 75 52
f 62 76 59
f 59 76 77
f 59 77 78
f 79 80 81
f 81 80 78
f 81 78 82
f 82 78 77
f 51 83 49
f 49 83 84
f 49 84 85
f 85 84 86
f 85 86 79
f 79 86 87
f 79 87 80
f 88 89 26
f 26 28 90
f 91 92 93
f 90 94 26
f 26 94 95
f 26 95 96
f 96 97 26
f 26 97 98
f 26 98 99
f 26 89 100
f 100 89 101
f 100 101 93
f 93 101 102
f 93 102 91
f 99 103 26
f 26 103 104
f 26 104 88
f 71 89 88
f 71 88 69
f 69 88 104
f 69 104 67
f 67 104 103
f 67 103 65
f 65 103 99
f 65 99 55
f 55 99 98
f 55 98 51
f 51 98 97
f 51 97 83
f 83 97 96
f 83 96 84
f 84 96 95
f 84 95 86
f 86 95 94
f 86 94 87
f 87 94 90
f 87 90 80
f 89 71 101
f 101 71 73
f 56 100 93
f 56 93 75
f 75 93 92
f 75 92 52
f 52 92 91
f 52 91 53
f 53 91 102
f 53 102 74
f 74 102 101
f 74 101 73
f 57 47 58
f 58 47 46
f 58 46 60
f 60 46 45
f 60 45 61
f 61 45 44
f 61 44 62
f 62 44 43
f 62 43 76
f 76 43 32
f 76 32 77
f 77 32 30
f 77 30 82
f 82 30 29
f 82 29 81
f 81 29 42
f 81 42 79
f 79 42 41
f 79 41 85
f 85 41 37
f 85 37 49
f 49 37 36
f 49 36 50
f 50 36 40
f 50 40 63
f 63 40 39
f 63 39 64
f 64 39 38
f 64 38 66
f 66 38 35
f 66 35 68
f 68 35 34
f 68 34 70
f 70 34 33
f 70 33 72
f 72 33 31
f 72 31 54
f 54 31 48
f 54 48 57
f 57 48 47
f 105 22 20
f 105 20 78
f 6 4 106
f 106 4 2
f 106 2 105
f 105 2 24
f 105 24 22
f 20 18 78
f 78 18 16
f 78 16 59
f 59 16 14
f 14 12 59
f 59 12 10
f 59 10 106
f 106 10 8
f 106 8 6
f 107 108 105
f 105 108 106
f 109 110 111
f 112 113 114
f 114 115 112
f 112 115 116
f 112 116 117
f 118 109 119
f 119 109 111
f 119 111 112
f 112 111 120
f 120 121 112
f 112 121 122
f 112 122 113
f 123 124 125
f 125 124 112
f 125 112 126
f 126 112 117
f 127 27 25
f 128 25 129
f 127 25 130
f 128 131 25
f 25 131 132
f 25 132 133
f 134 135 136
f 136 135 137
f 136 137 129
f 129 137 138
f 129 138 128
f 133 139 25
f 25 139 140
f 25 140 141
f 141 142 25
f 25 142 143
f 25 143 130
f 144 145 146
f 146 145 147
f 146 147 148
f 146 149 144
f 144 149 150
f 144 150 151
f 151 150 152
f 151 152 153
f 153 154 151
f 151 154 155
f 151 155 156
f 157 158 159
f 155 160 156
f 156 160 161
f 156 161 162
f 162 161 157
f 162 157 163
f 163 157 159
f 147 164 148
f 148 164 165
f 148 165 166
f 166 165 167
f 166 167 168
f 168 167 169
f 168 169 170
f 170 169 171
f 170 171 172
f 172 171 173
f 172 173 174
f 174 173 175
f 174 175 176
f 176 175 177
f 176 177 178
f 178 177 179
f 178 179 157
f 157 179 180
f 157 180 158
f 128 179 177
f 128 177 131
f 131 177 175
f 131 175 132
f 132 175 173
f 132 173 133
f 133 173 171
f 133 171 139
f 139 171 169
f 139 169 140
f 140 169 167
f 140 167 141
f 141 167 165
f 141 165 142
f 142 165 164
f 142 164 143
f 143 164 147
f 143 147 130
f 130 147 145
f 130 145 127
f 129 156 162
f 129 162 136
f 136 162 163
f 136 163 134
f 134 163 159
f 134 159 135
f 135 159 158
f 135 158 137
f 137 158 180
f 137 180 138
f 106 25 59
f 59 25 26
f 59 26 56
f 56 26 100
f 156 129 151
f 151 129 25
f 151 25 108
f 108 25 106
f 108 107 151
f 151 107 144
f 127 145 27
f 27 145 144
f 80 90 78
f 78 90 28
f 78 28 105
f 105 28 27
f 105 27 107
f 107 27 144
f 138 180 128
f 128 180 179
f 168 118 166
f 166 118 119
f 166 119 148
f 148 119 112
f 148 112 146
f 146 112 124
f 146 124 149
f 149 124 123
f 149 123 150
f 150 123 125
f 150 125 152
f 152 125 126
f 152 126 153
f 153 126 117
f 153 117 154
f 154 117 116
f 154 116 155
f 155 116 115
f 155 115 160
f 160 115 114
f 160 114 161
f 161 114 113
f 161 113 157
f 157 113 122
f 157 122 178
f 178 122 121
f 178 121 176
f 176 121 120
f 176 120 174
f 174 120 111
f 174 111 172
f 172 111 110
f 172 110 170
f 170 110 109
f 170 109 168
f 168 109 118

